<svg width="24" height="25" viewBox="0 0 24 25" fill="none" xmlns="http://www.w3.org/2000/svg">
<path fill-rule="evenodd" clip-rule="evenodd" d="M7.42864 5.34305C7.27709 5.34305 7.13174 5.40326 7.02458 5.51042C6.91742 5.61758 6.85721 5.76293 6.85721 5.91448V8.2002C6.85721 8.35175 6.91742 8.49709 7.02458 8.60426C7.13174 8.71142 7.27709 8.77162 7.42864 8.77162C7.58019 8.77162 7.72554 8.71142 7.8327 8.60426C7.93987 8.49709 8.00007 8.35175 8.00007 8.2002V5.91448C8.00007 5.76293 7.93987 5.61758 7.8327 5.51042C7.72554 5.40326 7.58019 5.34305 7.42864 5.34305ZM7.42864 4.2002C7.8833 4.2002 8.31933 4.38081 8.64082 4.7023C8.96231 5.02379 9.14293 5.45982 9.14293 5.91448V8.2002C9.14293 8.65485 8.96231 9.09089 8.64082 9.41238C8.31933 9.73387 7.8833 9.91448 7.42864 9.91448C6.97398 9.91448 6.53795 9.73387 6.21646 9.41238C5.89497 9.09089 5.71436 8.65485 5.71436 8.2002V5.91448C5.71436 5.45982 5.89497 5.02379 6.21646 4.7023C6.53795 4.38081 6.97398 4.2002 7.42864 4.2002Z" fill="#303030"/>
<path fill-rule="evenodd" clip-rule="evenodd" d="M8 7.05733C8 6.74174 8.25584 6.4859 8.57143 6.4859H21.1429C21.4584 6.4859 21.7143 6.74174 21.7143 7.05733C21.7143 7.37292 21.4584 7.62876 21.1429 7.62876H8.57143C8.25584 7.62876 8 7.37292 8 7.05733Z" fill="#303030"/>
<path fill-rule="evenodd" clip-rule="evenodd" d="M2.28564 7.05733C2.28564 6.74174 2.54148 6.4859 2.85707 6.4859H6.28564C6.60124 6.4859 6.85707 6.74174 6.85707 7.05733C6.85707 7.37292 6.60124 7.62876 6.28564 7.62876H2.85707C2.54148 7.62876 2.28564 7.37292 2.28564 7.05733Z" fill="#303030"/>
<path fill-rule="evenodd" clip-rule="evenodd" d="M7.42864 16.7716C7.27709 16.7716 7.13174 16.8318 7.02458 16.939C6.91742 17.0462 6.85721 17.1915 6.85721 17.3431V19.6288C6.85721 19.7803 6.91742 19.9257 7.02458 20.0328C7.13174 20.14 7.27709 20.2002 7.42864 20.2002C7.58019 20.2002 7.72554 20.14 7.8327 20.0328C7.93987 19.9257 8.00007 19.7803 8.00007 19.6288V17.3431C8.00007 17.1915 7.93987 17.0462 7.8327 16.939C7.72554 16.8318 7.58019 16.7716 7.42864 16.7716ZM6.21646 16.1309C6.53795 15.8094 6.97398 15.6288 7.42864 15.6288C7.8833 15.6288 8.31933 15.8094 8.64082 16.1309C8.96231 16.4524 9.14293 16.8884 9.14293 17.3431V19.6288C9.14293 20.0834 8.96231 20.5195 8.64082 20.841C8.31933 21.1625 7.8833 21.3431 7.42864 21.3431C6.97399 21.3431 6.53795 21.1625 6.21646 20.841C5.89497 20.5195 5.71436 20.0834 5.71436 19.6288V17.3431C5.71436 16.8884 5.89497 16.4524 6.21646 16.1309Z" fill="#303030"/>
<path fill-rule="evenodd" clip-rule="evenodd" d="M8 18.4859C8 18.1703 8.25584 17.9145 8.57143 17.9145H21.1429C21.4584 17.9145 21.7143 18.1703 21.7143 18.4859C21.7143 18.8015 21.4584 19.0573 21.1429 19.0573H8.57143C8.25584 19.0573 8 18.8015 8 18.4859Z" fill="#303030"/>
<path fill-rule="evenodd" clip-rule="evenodd" d="M2.28564 18.4859C2.28564 18.1703 2.54148 17.9145 2.85707 17.9145H6.28564C6.60124 17.9145 6.85707 18.1703 6.85707 18.4859C6.85707 18.8015 6.60124 19.0573 6.28564 19.0573H2.85707C2.54148 19.0573 2.28564 18.8015 2.28564 18.4859Z" fill="#303030"/>
<path fill-rule="evenodd" clip-rule="evenodd" d="M16.5712 11.0573C16.4197 11.0573 16.2743 11.1176 16.1672 11.2247C16.06 11.3319 15.9998 11.4772 15.9998 11.6288V13.9145C15.9998 14.066 16.06 14.2114 16.1672 14.3186C16.2743 14.4257 16.4197 14.4859 16.5712 14.4859C16.7228 14.4859 16.8681 14.4257 16.9753 14.3186C17.0824 14.2114 17.1426 14.066 17.1426 13.9145V11.6288C17.1426 11.4772 17.0824 11.3319 16.9753 11.2247C16.8681 11.1176 16.7228 11.0573 16.5712 11.0573ZM16.5712 9.91449C17.0259 9.91449 17.4619 10.0951 17.7834 10.4166C18.1049 10.7381 18.2855 11.1741 18.2855 11.6288V13.9145C18.2855 14.3691 18.1049 14.8052 17.7834 15.1267C17.4619 15.4482 17.0259 15.6288 16.5712 15.6288C16.1166 15.6288 15.6805 15.4482 15.359 15.1267C15.0375 14.8052 14.8569 14.3691 14.8569 13.9145V11.6288C14.8569 11.1741 15.0375 10.7381 15.359 10.4166C15.6805 10.0951 16.1166 9.91449 16.5712 9.91449Z" fill="#303030"/>
<path fill-rule="evenodd" clip-rule="evenodd" d="M2.28564 12.7716C2.28564 12.456 2.54148 12.2002 2.85707 12.2002H15.4285C15.7441 12.2002 15.9999 12.456 15.9999 12.7716C15.9999 13.0872 15.7441 13.3431 15.4285 13.3431H2.85707C2.54148 13.3431 2.28564 13.0872 2.28564 12.7716Z" fill="#303030"/>
<path fill-rule="evenodd" clip-rule="evenodd" d="M17.1426 12.7716C17.1426 12.456 17.3984 12.2002 17.714 12.2002H21.1426C21.4582 12.2002 21.714 12.456 21.714 12.7716C21.714 13.0872 21.4582 13.3431 21.1426 13.3431H17.714C17.3984 13.3431 17.1426 13.0872 17.1426 12.7716Z" fill="#303030"/>
</svg>
