<svg width="108" height="17" viewBox="0 0 108 17" fill="none" xmlns="http://www.w3.org/2000/svg">
<path d="M5.2322 8.48017L102.24 8.61808" stroke="#CACACA" stroke-width="0.836813" stroke-linecap="square" stroke-dasharray="1.67 4.18"/>
<path d="M51.078 16.0522H52.7308L56.8627 9.69242L61.4079 9.69242C62.0938 9.69242 62.6475 9.1598 62.6475 8.49996C62.6475 7.84012 62.0938 7.3075 61.4079 7.3075L56.8627 7.3075L52.7308 0.947754L51.078 0.947754L53.1439 7.30754L48.5988 7.30754L47.3592 5.71758H46.1196L46.946 8.5L46.1196 11.2824H47.3592L48.5988 9.69242H53.144L51.078 16.0522Z" fill="#1262AE"/>
<circle cx="5.32861" cy="8.44775" r="3.66319" fill="white" stroke="#1262AE" stroke-width="1.67363"/>
<path d="M107.101 9.13182C107.101 10.9502 105.56 12.4791 103.589 12.4791C101.618 12.4791 100.076 10.9502 100.076 9.13182C100.076 7.31346 101.618 5.78457 103.589 5.78457C105.56 5.78457 107.101 7.31346 107.101 9.13182Z" fill="white" stroke="#1262AE" stroke-width="1.67363"/>
</svg>
