<svg width="9" height="9" viewBox="0 0 9 9" fill="none" xmlns="http://www.w3.org/2000/svg">
<path d="M5.96013 0.967424C5.79488 0.803818 5.57082 0.711914 5.33719 0.711914C5.10357 0.711914 4.87951 0.803818 4.71426 0.967424L0.845027 4.80093C0.763195 4.88199 0.698283 4.97823 0.653995 5.08415C0.609708 5.19007 0.586914 5.3036 0.586914 5.41824C0.586914 5.53289 0.609708 5.64641 0.653995 5.75233C0.698283 5.85825 0.763195 5.95449 0.845027 6.03556L1.30405 6.48992C1.5038 6.68819 1.78462 6.65288 1.95421 6.55277C2.04776 6.49774 2.15715 6.47515 2.2651 6.48857C2.37306 6.50198 2.47342 6.55064 2.55035 6.62685C2.62729 6.70307 2.6764 6.8025 2.68994 6.90944C2.70348 7.01639 2.68068 7.12475 2.62513 7.21743C2.52447 7.38543 2.48844 7.66363 2.68858 7.86152L3.148 8.31626C3.22983 8.39733 3.32698 8.46164 3.4339 8.50551C3.54081 8.54938 3.65541 8.57196 3.77113 8.57196C3.88686 8.57196 4.00145 8.54938 4.10837 8.50551C4.21529 8.46164 4.31244 8.39733 4.39427 8.31626L8.26311 4.48354C8.34494 4.40247 8.40985 4.30623 8.45414 4.20031C8.49842 4.09439 8.52122 3.98087 8.52122 3.86622C8.52122 3.75157 8.49842 3.63805 8.45414 3.53213C8.40985 3.42621 8.34494 3.32997 8.26311 3.2489L7.80447 2.79416C7.60472 2.59627 7.32351 2.63119 7.15392 2.7313C7.06037 2.78633 6.95098 2.80892 6.84303 2.79551C6.73508 2.78209 6.63471 2.73343 6.55778 2.65722C6.48085 2.58101 6.43173 2.48158 6.41819 2.37463C6.40465 2.26769 6.42745 2.15932 6.483 2.06665C6.58405 1.89864 6.61969 1.62044 6.41955 1.42256L5.96052 0.967424H5.96013Z" fill="white"/>
</svg>
