<svg width="17" height="17" viewBox="0 0 17 17" fill="none" xmlns="http://www.w3.org/2000/svg">
<rect x="0.493164" y="0.44043" width="16.3991" height="16.3991" rx="4.01282" fill="#F9668D"/>
<path d="M8.40605 7.50356H8.98044V7.21906C8.98044 7.1436 9.0107 7.07124 9.06456 7.01788C9.11842 6.96453 9.19147 6.93456 9.26764 6.93456H10.1292C10.2054 6.93456 10.2784 6.96453 10.3323 7.01788C10.3862 7.07124 10.4164 7.1436 10.4164 7.21906V7.50356H11.5652V6.36555C11.5652 6.06373 11.4442 5.77427 11.2287 5.56085C11.0133 5.34744 10.7211 5.22754 10.4164 5.22754H6.97007C6.6654 5.22754 6.3732 5.34744 6.15776 5.56085C5.94232 5.77427 5.82129 6.06373 5.82129 6.36555V7.50356H6.97007V7.21906C6.97007 7.1436 7.00033 7.07124 7.05419 7.01788C7.10805 6.96453 7.1811 6.93456 7.25727 6.93456H8.11885C8.19502 6.93456 8.26807 6.96453 8.32193 7.01788C8.37579 7.07124 8.40605 7.1436 8.40605 7.21906V7.50356Z" fill="white"/>
<path d="M6.10877 8.07227C5.72794 8.07227 5.36271 8.22214 5.09342 8.48891C4.82414 8.75568 4.67285 9.11751 4.67285 9.49478V11.7708C4.67285 11.8463 4.70311 11.9186 4.75697 11.972C4.81082 12.0253 4.88387 12.0553 4.96004 12.0553C5.0362 12.0553 5.10925 12.0253 5.1631 11.972C5.21696 11.9186 5.24722 11.8463 5.24722 11.7708V10.3483H12.1396V11.7708C12.1396 11.8463 12.1699 11.9186 12.2237 11.972C12.2776 12.0253 12.3506 12.0553 12.4268 12.0553C12.503 12.0553 12.576 12.0253 12.6299 11.972C12.6837 11.9186 12.714 11.8463 12.714 11.7708V9.49478C12.714 9.11751 12.5627 8.75568 12.2934 8.48891C12.0241 8.22214 11.6589 8.07227 11.2781 8.07227H6.10877Z" fill="white"/>
</svg>
