<svg width="31" height="7" viewBox="0 0 31 7" fill="none" xmlns="http://www.w3.org/2000/svg">
<line x1="1.76953" y1="3.64706" x2="27.7404" y2="3.64706" stroke="#CCCCCC" stroke-width="0.250801" stroke-dasharray="0.75 0.75"/>
<g clip-path="url(#clip0_1065_866)">
<path d="M14.9575 6.13476H14.6151C14.5806 6.13475 14.5468 6.12685 14.5166 6.1118C14.4864 6.09675 14.4608 6.07501 14.4421 6.04858C14.4235 6.02215 14.4124 5.99187 14.4098 5.96051C14.4073 5.92915 14.4134 5.89771 14.4276 5.86907L15.2569 4.19673L14.0117 4.17146L13.5576 4.67427C13.471 4.77373 13.4019 4.81805 13.2257 4.81805H12.9952C12.9587 4.81913 12.9224 4.81214 12.8895 4.7977C12.8566 4.78325 12.8279 4.76176 12.806 4.73505C12.7754 4.69732 12.7453 4.63336 12.7747 4.54213L13.0296 3.70744C13.0316 3.70121 13.0339 3.69498 13.0364 3.68886C13.0366 3.68828 13.0366 3.68768 13.0364 3.6871C13.0338 3.68099 13.0315 3.67475 13.0296 3.66841L12.7744 2.82842C12.7467 2.73895 12.777 2.67641 12.8073 2.63961C12.8277 2.61489 12.8542 2.59489 12.8846 2.58121C12.9149 2.56753 12.9484 2.56055 12.9823 2.56085H13.2257C13.3573 2.56085 13.485 2.61481 13.5602 2.70192L14.0049 3.19627L15.2569 3.17934L14.4279 1.50995C14.4137 1.48132 14.4075 1.44989 14.41 1.41853C14.4125 1.38717 14.4236 1.35689 14.4422 1.33045C14.4608 1.30401 14.4864 1.28226 14.5166 1.26718C14.5468 1.2521 14.5806 1.24418 14.6151 1.24414H14.9612C15.0095 1.24503 15.057 1.25585 15.1001 1.27579C15.1432 1.29574 15.1808 1.3243 15.2102 1.35935L16.8189 3.14631L17.5621 3.12844C17.6165 3.12574 17.7672 3.1248 17.8021 3.1248C18.513 3.12515 18.9375 3.33606 18.9375 3.68945C18.9375 3.80066 18.8889 4.00687 18.5636 4.13807C18.3715 4.21566 18.1152 4.25493 17.8018 4.25493C17.7674 4.25493 17.617 4.25399 17.5618 4.25128L16.8187 4.23318L15.206 6.02014C15.1767 6.05504 15.1391 6.08346 15.0961 6.1033C15.053 6.12314 15.0057 6.13389 14.9575 6.13476Z" fill="#1262AE"/>
</g>
<circle cx="1.83457" cy="3.77256" r="1.0032" fill="white" stroke="#1262AE" stroke-width="0.501602"/>
<circle cx="28.7579" cy="3.66807" r="1.0032" fill="white" stroke="#1262AE" stroke-width="0.501602"/>
<defs>
<clipPath id="clip0_1065_866">
<rect width="6.58662" height="6.01922" fill="white" transform="translate(12.5562 0.679688)"/>
</clipPath>
</defs>
</svg>
