<svg width="17" height="17" viewBox="0 0 17 17" fill="none" xmlns="http://www.w3.org/2000/svg">
<rect x="0.214844" y="0.44043" width="16.3991" height="16.3991" rx="4.01282" fill="#36DA76"/>
<path d="M10.5384 11.8375C10.5246 11.5433 10.5064 11.2505 10.4918 10.9584C10.4446 10.0447 10.4485 9.1176 10.3991 8.19937C10.3497 7.28802 10.379 6.37605 10.353 5.46473C10.3477 5.27533 10.3562 4.90128 10.1602 4.7933C9.7386 4.56135 9.48832 5.19403 9.38107 5.4516C9.18772 5.91913 9.07602 6.41085 8.93791 6.89521C8.82021 7.30981 8.68617 7.72307 8.64074 8.15233C8.60709 8.47443 8.61018 8.83502 8.77845 9.12524C8.86295 9.2711 9.00905 9.37038 9.17541 9.41234C9.34807 9.45651 9.54548 9.39868 9.70932 9.47665C9.75155 9.49705 9.78876 9.53946 9.80571 9.58228C9.85881 9.72028 9.80858 9.92966 9.79197 10.072C9.73938 10.5307 9.68378 10.9939 9.65888 11.4547C9.64415 11.7334 9.62787 12.0904 9.79647 12.3332C9.89981 12.4806 10.1092 12.6183 10.2982 12.545C10.5807 12.4369 10.5501 12.0717 10.5384 11.8375Z" fill="white"/>
<path d="M6.94583 4.99538C6.86467 5.02792 6.89544 5.31812 6.89183 5.40728C6.88649 5.56747 6.89743 5.77943 6.87814 5.98704C6.87803 5.98889 6.87775 5.99018 6.87748 5.99147C6.87581 6.00589 6.87445 6.02146 6.87208 6.03789C6.86955 6.05376 6.86686 6.06905 6.86492 6.08477C6.84762 6.18599 6.81468 6.30585 6.75242 6.36332C6.68173 6.42905 6.52334 6.41522 6.46833 6.33756C6.37833 6.21114 6.38508 5.92889 6.37961 5.92056C6.37596 5.78704 6.3565 5.38318 6.32732 5.1169C6.3249 5.09684 6.32102 4.97615 6.21083 4.96325C6.15944 4.95767 6.10537 5.00146 6.08784 5.08144C6.03609 5.31752 5.98763 5.76753 5.98457 5.8383C5.98395 5.84515 5.98365 5.85314 5.98362 5.85984C5.98362 5.85984 5.98335 5.86113 5.9835 5.8617C5.98317 5.87639 5.96567 6.22895 5.87645 6.35059C5.82982 6.41436 5.70875 6.46451 5.58844 6.39703C5.54052 6.36987 5.50768 6.31751 5.48453 6.26142C5.35872 5.86984 5.47166 5.43845 5.48773 5.23289C5.49249 5.17507 5.54485 4.98204 5.42804 4.9885C5.25217 4.99806 5.02506 5.74737 4.98445 5.91911C4.88489 6.34643 4.8698 6.80303 5.04297 7.21524C5.13918 7.4435 5.32735 7.63034 5.56069 7.72094C5.66381 7.76061 5.77842 7.7894 5.89976 7.80611C5.8561 8.77756 5.80653 9.7913 5.76139 10.3555C5.72667 10.78 5.68567 11.2092 5.69119 11.6356C5.69445 11.8903 5.69176 12.194 5.85896 12.4076C6.03386 12.6307 6.40277 12.528 6.50237 12.2644C6.6141 11.9672 6.58161 11.6208 6.54356 11.0751C6.50536 10.5289 6.46236 9.78365 6.43867 9.38271C6.40398 8.79233 6.39188 8.27643 6.38855 7.80573C6.6992 7.76134 6.98894 7.62804 7.15109 7.38291C7.22224 7.27568 7.26908 7.15588 7.30107 7.03261C7.35014 6.8459 7.37406 6.64136 7.36346 6.44878C7.35268 6.27146 7.20696 4.89078 6.94583 4.99538Z" fill="white"/>
</svg>
