<svg width="24" height="24" viewBox="0 0 24 24" fill="none" xmlns="http://www.w3.org/2000/svg">
<path d="M11.8732 21.8913C9.24985 21.8913 6.73396 20.8492 4.87899 18.9942C3.02401 17.1392 1.98189 14.6234 1.98189 12C1.98189 9.37669 3.02401 6.86079 4.87899 5.00582C6.73396 3.15084 9.24985 2.10872 11.8732 2.10872C14.4965 2.10872 17.0124 3.15084 18.8674 5.00582C20.7224 6.86079 21.7645 9.37669 21.7645 12C21.7645 14.6234 20.7224 17.1392 18.8674 18.9942C17.0124 20.8492 14.4965 21.8913 11.8732 21.8913ZM11.8732 23.3044C14.8713 23.3044 17.7466 22.1134 19.8666 19.9934C21.9865 17.8734 23.1775 14.9981 23.1775 12C23.1775 9.00192 21.9865 6.12662 19.8666 4.00664C17.7466 1.88667 14.8713 0.695679 11.8732 0.695679C8.87509 0.695679 5.99979 1.88667 3.87981 4.00664C1.75984 6.12662 0.568848 9.00192 0.568848 12C0.568848 14.9981 1.75984 17.8734 3.87981 19.9934C5.99979 22.1134 8.87509 23.3044 11.8732 23.3044V23.3044Z" fill="#1262AF"/>
<path d="M9.34991 7.19992C9.48321 7.13127 9.63286 7.10074 9.7824 7.11166C9.93193 7.12259 10.0756 7.17456 10.1975 7.26185L15.9021 11.3366C16.0078 11.412 16.0939 11.5115 16.1533 11.6269C16.2127 11.7423 16.2437 11.8702 16.2437 12C16.2437 12.1298 16.2127 12.2577 16.1533 12.3731C16.0939 12.4885 16.0078 12.588 15.9021 12.6634L10.1975 16.7381C10.0756 16.8254 9.93205 16.8773 9.78259 16.8882C9.63313 16.8991 9.48355 16.8686 9.35029 16.8001C9.21704 16.7315 9.10527 16.6275 9.02728 16.4996C8.94928 16.3716 8.90808 16.2246 8.9082 16.0748V7.92522C8.90805 7.77541 8.94919 7.62845 9.02712 7.50049C9.10504 7.37253 9.21673 7.26853 9.34991 7.19992V7.19992Z" fill="#1262AF"/>
</svg>
