<svg width="174" height="34" viewBox="0 0 174 34" fill="none" xmlns="http://www.w3.org/2000/svg">
<g clip-path="url(#clip0_1003_25300)">
<path d="M129.851 8.56244C131.214 8.56244 132.452 8.73583 133.564 9.08262C134.676 9.42941 135.615 9.87784 136.38 10.4279C136.858 10.7627 137.235 11.1334 137.51 11.54C137.785 11.9466 137.923 12.4728 137.923 13.1185V25.6745L137.917 26.0159C137.877 27.1396 137.64 28.12 137.205 28.9571C136.727 29.8778 136.075 30.6432 135.25 31.253C134.425 31.8629 133.456 32.3113 132.344 32.5983C131.232 32.8853 130.042 33.0288 128.775 33.0288C126.598 33.0288 124.888 32.7358 123.645 32.1499C122.401 31.5639 121.779 30.6133 121.779 29.2979C121.779 28.7478 121.893 28.2635 122.12 27.845C122.347 27.4264 122.604 27.1095 122.891 26.8943C123.585 27.2769 124.368 27.5998 125.241 27.8629C126.114 28.126 127.017 28.2575 127.95 28.2575C129.241 28.2575 130.269 28.0423 131.035 27.6118C131.8 27.1813 132.183 26.4877 132.183 25.5311V24.9571L131.91 25.0691C130.983 25.4249 129.878 25.6028 128.595 25.6028C127.519 25.6028 126.497 25.4414 125.528 25.1185C124.559 24.7956 123.71 24.2934 122.981 23.6118C122.251 22.9302 121.665 22.0512 121.223 20.975C120.781 19.8988 120.559 18.6192 120.559 17.1364C120.559 15.6775 120.793 14.41 121.259 13.3337C121.725 12.2575 122.371 11.3666 123.196 10.6611C124.021 9.95556 125.002 9.42941 126.138 9.08262C127.274 8.73583 128.512 8.56244 129.851 8.56244ZM33.2869 9.11936C35.4197 9.11936 37.165 9.59794 38.5227 10.5551C39.8804 11.5123 40.6841 13.2029 40.9338 15.627H36.3769L36.3333 15.3589C36.2301 14.8302 36.0313 14.3473 35.737 13.9104C35.2377 13.2237 34.4626 12.8804 33.4118 12.8804C31.9136 12.8804 30.8888 13.6243 30.3374 15.112C30.0461 15.9027 29.9004 16.9535 29.9004 18.2644C29.9004 19.5129 30.0461 20.5169 30.3374 21.2764C30.868 22.6913 31.8668 23.3988 33.3337 23.3988C34.3741 23.3988 35.1128 23.1178 35.5498 22.556C35.9867 21.9942 36.252 21.2659 36.3457 20.3712H40.887L40.8561 20.682C40.7054 21.9202 40.2267 23.0962 39.42 24.2103C38.0259 26.1558 35.9607 27.1286 33.2245 27.1286C30.4883 27.1286 28.4751 26.3171 27.185 24.694C25.8949 23.071 25.2499 20.9642 25.2499 18.3737C25.2499 15.4501 25.9626 13.1769 27.3879 11.5539C28.8132 9.93087 30.7796 9.11936 33.2869 9.11936ZM74.6185 9.07254C76.0334 9.07254 77.3079 9.33784 78.4419 9.86844C79.5759 10.399 80.5123 11.2366 81.251 12.381C81.9168 13.3902 82.3486 14.5606 82.5462 15.8923C82.6607 16.6726 82.7075 17.7962 82.6867 19.2632H71.0447L71.0606 19.559C71.1718 21.1084 71.7023 22.2063 72.6521 22.8525C73.2659 23.2791 74.0046 23.4924 74.8681 23.4924C75.7837 23.4924 76.5276 23.2323 77.0998 22.7121C77.4119 22.4312 77.6876 22.041 77.9269 21.5417H82.4682L82.4345 21.7748C82.2705 22.7086 81.7563 23.6556 80.892 24.616C79.4355 26.2702 77.3963 27.0973 74.7745 27.0973C72.6105 27.0973 70.7014 26.4003 69.0471 25.0062C67.3929 23.612 66.5658 21.344 66.5658 18.202C66.5658 15.2577 67.3123 13 68.8053 11.429C70.2982 9.85804 72.236 9.07254 74.6185 9.07254ZM105.848 2.82253C106.374 2.82253 106.846 2.8584 107.265 2.93015C107.683 3.0019 108.036 3.1454 108.323 3.36065C108.61 3.57589 108.831 3.86887 108.987 4.23957C109.142 4.61027 109.22 5.09458 109.22 5.69249V26.4997L109.099 26.5213C108.843 26.5667 108.495 26.6252 108.054 26.697C107.54 26.7807 107.019 26.8225 106.493 26.8225C105.967 26.8225 105.495 26.7867 105.076 26.7149C104.658 26.6432 104.305 26.4997 104.018 26.2844C103.731 26.0692 103.51 25.7762 103.354 25.4055C103.199 25.0348 103.121 24.5505 103.121 23.9526V3.1454L103.242 3.1238C103.498 3.07841 103.846 3.01984 104.287 2.94809C104.801 2.86438 105.321 2.82253 105.848 2.82253ZM115.015 9.02881C115.541 9.02881 116.014 9.06468 116.432 9.13643C116.851 9.20818 117.203 9.35168 117.49 9.56693C117.777 9.78217 117.999 10.0751 118.154 10.4458C118.31 10.8166 118.387 11.3009 118.387 11.8988V26.4997L118.267 26.5213C118.011 26.5667 117.662 26.6252 117.221 26.697C116.707 26.7807 116.187 26.8225 115.661 26.8225C115.135 26.8225 114.662 26.7867 114.244 26.7149C113.825 26.6432 113.473 26.4997 113.186 26.2844C112.899 26.0692 112.677 25.7762 112.522 25.4055C112.366 25.0348 112.289 24.5505 112.289 23.9526V9.35168L112.409 9.33008C112.665 9.28469 113.014 9.22612 113.455 9.15437C113.969 9.07066 114.489 9.02881 115.015 9.02881ZM143.574 2.82253C144.101 2.82253 144.573 2.8584 144.991 2.93015C145.41 3.0019 145.763 3.1454 146.05 3.36065C146.337 3.57589 146.558 3.86887 146.713 4.23957C146.869 4.61027 146.947 5.09458 146.947 5.69249V9.20818L147.071 9.1625C147.378 9.05394 147.809 8.93165 148.364 8.79562C148.997 8.64017 149.697 8.56244 150.462 8.56244C152.83 8.56244 154.678 9.15437 156.005 10.3382C157.332 11.5221 157.996 13.2859 157.996 15.6297V26.4997L157.885 26.5304C157.646 26.5919 157.307 26.6534 156.866 26.7149C156.352 26.7867 155.82 26.8225 155.27 26.8225C154.743 26.8225 154.271 26.7867 153.852 26.7149C153.434 26.6432 153.081 26.4997 152.794 26.2844C152.507 26.0692 152.286 25.7762 152.131 25.4055C151.975 25.0348 151.897 24.5505 151.897 23.9526V15.9885L151.893 15.7674C151.858 14.9038 151.614 14.2899 151.162 13.9257C150.672 13.5311 150.068 13.3337 149.35 13.3337C148.872 13.3337 148.417 13.3935 147.987 13.5131C147.557 13.6327 147.21 13.7762 146.947 13.9436V26.4997L146.836 26.5304C146.597 26.5919 146.257 26.6534 145.817 26.7149C145.302 26.7867 144.77 26.8225 144.22 26.8225C143.694 26.8225 143.222 26.7867 142.803 26.7149C142.385 26.6432 142.032 26.4997 141.745 26.2844C141.458 26.0692 141.237 25.7762 141.081 25.4055C140.926 25.0348 140.848 24.5505 140.848 23.9526V3.1454L140.968 3.1238C141.225 3.07841 141.573 3.01984 142.014 2.94809C142.528 2.86438 143.048 2.82253 143.574 2.82253ZM100.626 4.79562L100.708 4.93464C100.843 5.17878 100.965 5.48521 101.075 5.85392C101.206 6.29637 101.272 6.75676 101.272 7.23509C101.272 8.16782 101.075 8.8315 100.68 9.22612C100.285 9.62074 99.7533 9.81805 99.0836 9.81805H91.55V13.8719H99.4065L99.4997 14.0104C99.6508 14.2529 99.7812 14.5535 99.8908 14.9122C100.022 15.3427 100.088 15.7971 100.088 16.2754C100.088 17.1843 99.8908 17.836 99.4962 18.2306C99.1016 18.6252 98.5694 18.8225 97.8998 18.8225H91.6217V26.392L91.4998 26.4228C91.2377 26.4843 90.8658 26.5458 90.3841 26.6073C89.822 26.679 89.266 26.7149 88.7159 26.7149C88.1658 26.7149 87.6815 26.6731 87.263 26.5893C86.8445 26.5056 86.4917 26.3562 86.2047 26.1409C85.9177 25.9257 85.7025 25.6267 85.559 25.2441C85.4155 24.8614 85.3437 24.3592 85.3437 23.7373V8.13195L85.3499 7.87933C85.3956 6.96952 85.6925 6.24057 86.2406 5.69249C86.8385 5.09458 87.6516 4.79562 88.68 4.79562H100.626ZM16.3082 3.56366V7.60559H4.7754V12.896H14.8724V16.8911H4.7754V26.5355H0V3.56366H16.3082ZM22.8234 9.52511V26.5355H18.3133V9.52511H22.8234ZM47.4022 3.61048V16.0016L52.9423 9.60314H58.4512L52.5054 16.1108L58.6853 26.5355H53.3169L49.2437 19.2632L47.4022 21.1827V26.5355H43.0326V3.61048H47.4022ZM64.4827 3.53245V26.5355H60.035V3.53245H64.4827ZM158.328 4.64809C159.074 4.4239 160.346 4.37403 161.836 5.03275C163.339 5.69773 164.277 6.83832 164.649 8.45453L172.721 9.14055C172.821 9.14635 172.92 9.1666 173.019 9.2013C173.167 9.25336 173.247 9.32659 173.314 9.38393C173.478 9.5245 173.531 9.63289 173.609 9.82698C173.748 10.1721 173.706 10.5783 173.525 10.8568C173.233 11.3059 172.777 11.5964 172.156 11.7285L165.639 13.1135L166.79 18.5251C166.922 19.1463 167.213 19.5464 167.663 19.7255C168.113 19.9045 168.696 19.9178 169.413 19.7655C169.772 19.6893 170.135 19.5807 170.505 19.4397C170.875 19.2987 171.193 19.15 171.459 18.9935C171.73 19.2106 171.977 19.4639 172.201 19.7534C172.425 20.043 172.585 20.4147 172.682 20.8687C173.038 22.5468 170.397 24.1322 168.666 24.4434C167.062 24.7315 164.602 24.9709 163.195 21.2862C161.789 17.6015 159.58 11.425 157.894 6.27781C157.748 5.83362 157.658 5.39735 157.814 5.03734C157.899 4.84276 157.96 4.75877 158.328 4.64809ZM130.138 13.3337C128.966 13.3337 128.087 13.6626 127.501 14.3203C126.915 14.978 126.622 15.9167 126.622 17.1364C126.622 18.5236 126.915 19.5221 127.501 20.1319C128.087 20.7418 128.834 21.0467 129.743 21.0467C130.724 21.0467 131.501 20.8195 132.075 20.3651V13.7642L131.965 13.7068C131.806 13.6303 131.598 13.5538 131.34 13.4772C131.017 13.3816 130.616 13.3337 130.138 13.3337ZM74.6185 12.7399C73.5885 12.7399 72.79 13.0624 72.2229 13.7075C71.6559 14.3525 71.2996 15.2265 71.1539 16.3293H78.0674C77.9945 15.1536 77.6382 14.2615 76.9984 13.6529C76.3585 13.0442 75.5652 12.7399 74.6185 12.7399ZM22.8234 3.392V7.49635H18.3133V3.392H22.8234ZM115.338 1.02881C116.342 1.02881 117.15 1.33972 117.76 1.96154C118.369 2.58337 118.674 3.34869 118.674 4.25751C118.674 5.16633 118.369 5.93165 117.76 6.55347C117.15 7.1753 116.342 7.48621 115.338 7.48621C114.334 7.48621 113.526 7.1753 112.916 6.55347C112.307 5.93165 112.002 5.16633 112.002 4.25751C112.002 3.34869 112.307 2.58337 112.916 1.96154C113.526 1.33972 114.334 1.02881 115.338 1.02881Z" fill="white"/>
</g>
<defs>
<clipPath id="clip0_1003_25300">
<rect width="174" height="33" fill="white" transform="translate(0 0.503418)"/>
</clipPath>
</defs>
</svg>
