<svg width="44" height="10" viewBox="0 0 44 10" fill="none" xmlns="http://www.w3.org/2000/svg">
<g clip-path="url(#clip0_1065_1126)">
<path d="M32.6351 3.02323C32.977 3.02323 33.2874 3.06672 33.5663 3.15369C33.8452 3.24067 34.0806 3.35313 34.2726 3.49109C34.3926 3.57507 34.487 3.66804 34.556 3.77001C34.625 3.87198 34.6595 4.00394 34.6595 4.16589V7.31496L34.658 7.40059C34.6481 7.6824 34.5886 7.92828 34.4795 8.13822C34.3596 8.36915 34.1961 8.5611 33.9892 8.71405C33.7822 8.86701 33.5393 8.97947 33.2604 9.05145C32.9815 9.12343 32.6831 9.15942 32.3652 9.15942C31.8193 9.15942 31.3904 9.08594 31.0785 8.93898C30.7666 8.79203 30.6107 8.5536 30.6107 8.2237C30.6107 8.08574 30.6392 7.96427 30.6961 7.8593C30.7531 7.75433 30.8176 7.67486 30.8896 7.62087C31.0635 7.71685 31.26 7.79782 31.4789 7.8638C31.6979 7.92978 31.9243 7.96277 32.1582 7.96277C32.4821 7.96277 32.74 7.90879 32.932 7.80082C33.1239 7.69285 33.2199 7.5189 33.2199 7.27897V7.13502L33.1515 7.16312C32.919 7.25235 32.6419 7.29697 32.3202 7.29697C32.0502 7.29697 31.7938 7.25648 31.5509 7.1755C31.308 7.09453 31.095 6.96857 30.9121 6.79762C30.7291 6.62667 30.5822 6.40623 30.4712 6.13631C30.3602 5.86639 30.3048 5.54549 30.3048 5.1736C30.3048 4.8077 30.3632 4.4898 30.4802 4.21988C30.5972 3.94996 30.7591 3.72652 30.9661 3.54958C31.173 3.37263 31.4189 3.24067 31.7038 3.15369C31.9888 3.06672 32.2992 3.02323 32.6351 3.02323ZM8.41675 3.16291C8.95166 3.16291 9.38937 3.28294 9.72989 3.52299C10.0704 3.76305 10.272 4.18706 10.3346 4.79503H9.19172L9.18077 4.72778C9.15489 4.59518 9.10505 4.47409 9.03124 4.3645C8.906 4.19228 8.7116 4.10617 8.44806 4.10617C8.07232 4.10617 7.8153 4.29274 7.67701 4.66587C7.60395 4.86418 7.56742 5.12772 7.56742 5.45649C7.56742 5.76961 7.60395 6.02141 7.67701 6.21189C7.81008 6.56676 8.06058 6.74419 8.42849 6.74419C8.68942 6.74419 8.87469 6.67374 8.98428 6.53284C9.09387 6.39193 9.1604 6.20928 9.18389 5.98488H10.3229L10.3151 6.06284C10.2773 6.37336 10.1573 6.66832 9.95494 6.94772C9.60529 7.43566 9.08734 7.67963 8.40109 7.67963C7.71484 7.67963 7.20994 7.4761 6.88639 7.06905C6.56283 6.662 6.40105 6.13361 6.40105 5.48389C6.40105 4.75067 6.57979 4.18054 6.93727 3.77349C7.29474 3.36643 7.7879 3.16291 8.41675 3.16291ZM18.7827 3.15117C19.1376 3.15117 19.4572 3.2177 19.7417 3.35078C20.0261 3.48385 20.2609 3.6939 20.4462 3.98093C20.6132 4.23403 20.7215 4.52758 20.771 4.86157C20.7997 5.05727 20.8115 5.33908 20.8063 5.70699H17.8864L17.8904 5.78118C17.9183 6.16978 18.0514 6.44512 18.2896 6.6072C18.4435 6.71418 18.6288 6.76768 18.8454 6.76768C19.075 6.76768 19.2615 6.70244 19.4051 6.57198C19.4833 6.50153 19.5525 6.40368 19.6125 6.27843H20.7515L20.743 6.33691C20.7019 6.5711 20.5729 6.80862 20.3562 7.04948C19.9909 7.46436 19.4794 7.6718 18.8219 7.6718C18.2791 7.6718 17.8003 7.49698 17.3854 7.14733C16.9706 6.79768 16.7631 6.22885 16.7631 5.44084C16.7631 4.7024 16.9503 4.13618 17.3248 3.74217C17.6992 3.34817 18.1852 3.15117 18.7827 3.15117ZM26.615 1.58366C26.747 1.58366 26.8655 1.59265 26.9704 1.61065C27.0754 1.62864 27.1639 1.66463 27.2358 1.71862C27.3078 1.7726 27.3633 1.84608 27.4023 1.93905C27.4413 2.03202 27.4608 2.15349 27.4608 2.30344V7.5219L27.4306 7.52732C27.3663 7.5387 27.2789 7.55339 27.1684 7.57139C27.0394 7.59238 26.9089 7.60288 26.777 7.60288C26.645 7.60288 26.5266 7.59388 26.4216 7.57589C26.3166 7.55789 26.2281 7.5219 26.1562 7.46792C26.0842 7.41393 26.0287 7.34046 25.9897 7.24748C25.9507 7.15451 25.9312 7.03305 25.9312 6.88309V1.66463L25.9614 1.65922C26.0257 1.64783 26.1131 1.63314 26.2236 1.61515C26.3526 1.59415 26.4831 1.58366 26.615 1.58366ZM28.9143 3.1402C29.0462 3.1402 29.1647 3.14919 29.2697 3.16719C29.3746 3.18518 29.4631 3.22117 29.5351 3.27516C29.6071 3.32914 29.6625 3.40262 29.7015 3.49559C29.7405 3.58856 29.76 3.71003 29.76 3.85998V7.5219L29.7298 7.52732C29.6655 7.5387 29.5781 7.55339 29.4676 7.57139C29.3386 7.59238 29.2082 7.60288 29.0762 7.60288C28.9443 7.60288 28.8258 7.59388 28.7208 7.57589C28.6159 7.55789 28.5274 7.5219 28.4554 7.46792C28.3834 7.41393 28.3279 7.34046 28.2889 7.24748C28.25 7.15451 28.2305 7.03305 28.2305 6.88309V3.22117L28.2607 3.21576C28.3249 3.20437 28.4123 3.18968 28.5229 3.17169C28.6518 3.15069 28.7823 3.1402 28.9143 3.1402ZM36.077 1.58366C36.2089 1.58366 36.3274 1.59265 36.4324 1.61065C36.5373 1.62864 36.6258 1.66463 36.6978 1.71862C36.7698 1.7726 36.8252 1.84608 36.8642 1.93905C36.9032 2.03202 36.9227 2.15349 36.9227 2.30344V3.18518L36.9539 3.17373C37.0309 3.1465 37.139 3.11583 37.2781 3.08171C37.4371 3.04273 37.6125 3.02323 37.8045 3.02323C38.3983 3.02323 38.8616 3.17169 39.1945 3.4686C39.5274 3.76551 39.6939 4.20788 39.6939 4.79571V7.5219L39.6661 7.52961C39.6062 7.54504 39.521 7.56046 39.4105 7.57589C39.2815 7.59388 39.1481 7.60288 39.0101 7.60288C38.8781 7.60288 38.7597 7.59388 38.6547 7.57589C38.5497 7.55789 38.4613 7.5219 38.3893 7.46792C38.3173 7.41393 38.2618 7.34046 38.2228 7.24748C38.1838 7.15451 38.1644 7.03305 38.1644 6.88309V4.88568L38.1633 4.83023C38.1545 4.61366 38.0934 4.45969 37.9799 4.36833C37.8569 4.26936 37.7055 4.21988 37.5255 4.21988C37.4056 4.21988 37.2916 4.23487 37.1836 4.26486C37.0757 4.29486 36.9887 4.33084 36.9227 4.37283V7.5219L36.8949 7.52961C36.835 7.54504 36.7498 7.56046 36.6393 7.57589C36.5103 7.59388 36.3769 7.60288 36.2389 7.60288C36.107 7.60288 35.9885 7.59388 35.8835 7.57589C35.7786 7.55789 35.6901 7.5219 35.6181 7.46792C35.5461 7.41393 35.4906 7.34046 35.4517 7.24748C35.4127 7.15451 35.3932 7.03305 35.3932 6.88309V1.66463L35.4234 1.65922C35.4876 1.64783 35.575 1.63314 35.6856 1.61515C35.8145 1.59415 35.945 1.58366 36.077 1.58366ZM25.3055 2.07851L25.3261 2.11337C25.3599 2.17461 25.3905 2.25146 25.418 2.34393C25.451 2.4549 25.4675 2.57036 25.4675 2.69033C25.4675 2.92426 25.418 3.09071 25.319 3.18968C25.22 3.28865 25.0866 3.33814 24.9186 3.33814H23.0292V4.35484H24.9996L25.023 4.38958C25.0609 4.45039 25.0936 4.52579 25.1211 4.61576C25.1541 4.72373 25.1705 4.8377 25.1705 4.95766C25.1705 5.18559 25.1211 5.34904 25.0221 5.44802C24.9231 5.54699 24.7897 5.59647 24.6217 5.59647H23.0472V7.49491L23.0166 7.50262C22.9509 7.51805 22.8576 7.53347 22.7368 7.54889C22.5958 7.56689 22.4564 7.57589 22.3184 7.57589C22.1804 7.57589 22.059 7.56539 21.954 7.5444C21.849 7.5234 21.7606 7.48591 21.6886 7.43193C21.6166 7.37795 21.5626 7.30297 21.5266 7.207C21.4906 7.11102 21.4726 6.98506 21.4726 6.82911V2.91526L21.4742 2.85191C21.4857 2.62372 21.5601 2.4409 21.6976 2.30344C21.8475 2.15349 22.0515 2.07851 22.3094 2.07851H25.3055ZM4.15846 1.76953V2.78325H1.26603V4.11009H3.79837V5.11207H1.26603V7.5309H0.0683594V1.76953H4.15846ZM5.79249 3.26467V7.5309H4.66135V3.26467H5.79249ZM11.9569 1.78128V4.88897L13.3463 3.28424H14.728L13.2368 4.91637L14.7867 7.5309H13.4403L12.4187 5.70699L11.9569 6.18841V7.5309H10.861V1.78128H11.9569ZM16.2407 1.76171V7.5309H15.1252V1.76171H16.2407ZM39.7772 2.04151C39.9642 1.98528 40.2833 1.97277 40.6569 2.13798C41.034 2.30476 41.2692 2.59082 41.3625 2.99617L43.3869 3.16822C43.412 3.16968 43.4369 3.17475 43.4617 3.18346C43.4989 3.19651 43.5189 3.21488 43.5356 3.22926C43.5767 3.26452 43.5901 3.2917 43.6097 3.34038C43.6445 3.42694 43.6339 3.52881 43.5886 3.59867C43.5154 3.71129 43.4009 3.78416 43.2452 3.81727L41.6109 4.16465L41.8994 5.52188C41.9325 5.67768 42.0055 5.77803 42.1184 5.82293C42.2312 5.86783 42.3776 5.87117 42.5573 5.83296C42.6472 5.81386 42.7385 5.78662 42.8312 5.75126C42.9239 5.7159 43.0036 5.6786 43.0704 5.63935C43.1384 5.6938 43.2004 5.75733 43.2566 5.82995C43.3127 5.90256 43.3529 5.9958 43.3771 6.10965C43.4666 6.53053 42.8041 6.92815 42.3699 7.00619C41.9678 7.07845 41.3507 7.13849 40.9979 6.21436C40.6452 5.29023 40.0911 3.74117 39.6682 2.45024C39.6317 2.33884 39.6091 2.22942 39.6484 2.13913C39.6696 2.09033 39.6849 2.06927 39.7772 2.04151ZM32.7071 4.21988C32.4131 4.21988 32.1927 4.30235 32.0457 4.4673C31.8988 4.63226 31.8253 4.86769 31.8253 5.1736C31.8253 5.52149 31.8988 5.77192 32.0457 5.92487C32.1927 6.07783 32.3801 6.15431 32.6081 6.15431C32.854 6.15431 33.049 6.09732 33.1929 5.98336V4.32785L33.1654 4.31345C33.1255 4.29426 33.0732 4.27506 33.0085 4.25587C32.9275 4.23187 32.827 4.21988 32.7071 4.21988ZM18.7827 4.07095C18.5244 4.07095 18.3242 4.15184 18.1819 4.31361C18.0397 4.47539 17.9504 4.69458 17.9138 4.97116H19.6477C19.6295 4.67631 19.5401 4.45256 19.3796 4.29992C19.2191 4.14727 19.0202 4.07095 18.7827 4.07095ZM5.79249 1.72648V2.75585H4.66135V1.72648H5.79249ZM28.9952 1.13379C29.2472 1.13379 29.4496 1.21177 29.6026 1.36772C29.7555 1.52367 29.832 1.71562 29.832 1.94355C29.832 2.17148 29.7555 2.36343 29.6026 2.51938C29.4496 2.67533 29.2472 2.75331 28.9952 2.75331C28.7433 2.75331 28.5409 2.67533 28.3879 2.51938C28.235 2.36343 28.1585 2.17148 28.1585 1.94355C28.1585 1.71562 28.235 1.52367 28.3879 1.36772C28.5409 1.21177 28.7433 1.13379 28.9952 1.13379Z" fill="white"/>
</g>
<defs>
<clipPath id="clip0_1065_1126">
<rect width="43.6394" height="8.27643" fill="white" transform="translate(0.0673828 0.998047)"/>
</clipPath>
</defs>
</svg>
