<svg width="5" height="5" viewBox="0 0 5 5" fill="none" xmlns="http://www.w3.org/2000/svg">
<path fill-rule="evenodd" clip-rule="evenodd" d="M2.18163 0.882812C3.09299 0.882812 3.83259 1.62171 3.83259 2.53307C3.83259 2.92565 3.69588 3.28634 3.46804 3.56956L4.16208 4.26394C4.22868 4.33264 4.22868 4.44341 4.16208 4.51211C4.10249 4.57275 4.00785 4.57941 3.93774 4.53209L3.91321 4.51211L3.21917 3.81773C2.93525 4.04662 2.57421 4.18367 2.18163 4.18367C1.27027 4.18367 0.53418 3.44477 0.53418 2.53307C0.53418 1.62171 1.27027 0.882812 2.18163 0.882812ZM2.18163 1.23333C1.46657 1.23333 0.884701 1.8152 0.884701 2.53307C0.884701 3.25094 1.46657 3.83315 2.18163 3.83315C2.9002 3.83315 3.48207 3.25094 3.48207 2.53307C3.48207 1.8152 2.9002 1.23333 2.18163 1.23333Z" fill="#3F4C5A"/>
</svg>
