<svg width="17" height="18" viewBox="0 0 17 18" fill="none" xmlns="http://www.w3.org/2000/svg">
<path d="M16.1368 6.43948L11.1377 5.65526L8.903 0.765024C8.84197 0.631132 8.74155 0.522744 8.61751 0.45686C8.30642 0.29109 7.92839 0.429232 7.77285 0.765024L5.53813 5.65526L0.539058 6.43948C0.401234 6.46074 0.275223 6.53087 0.178747 6.63713C0.0621115 6.76653 -0.00215972 6.94062 5.54169e-05 7.12115C0.00227055 7.30167 0.0707908 7.47386 0.19056 7.59988L3.80745 11.4062L2.95295 16.781C2.93291 16.9061 2.94572 17.0346 2.98995 17.1522C3.03417 17.2698 3.10802 17.3716 3.20313 17.4462C3.29825 17.5208 3.41081 17.5651 3.52806 17.5741C3.64532 17.5831 3.76257 17.5565 3.86652 17.4972L8.33792 14.9597L12.8093 17.4972C12.9314 17.5674 13.0732 17.5908 13.209 17.5653C13.5516 17.5015 13.782 17.1508 13.7229 16.781L12.8684 11.4062L16.4853 7.59988C16.5837 7.49574 16.6487 7.35972 16.6684 7.21096C16.7216 6.83903 16.4814 6.49474 16.1368 6.43948V6.43948Z" fill="#FDBF00"/>
</svg>
