<svg width="5" height="6" viewBox="0 0 5 6" fill="none" xmlns="http://www.w3.org/2000/svg">
<path d="M4.55303 2.4282L3.30166 2.23151L2.74227 1.00504C2.72699 0.971455 2.70185 0.944271 2.6708 0.927748C2.59293 0.886172 2.4983 0.920819 2.45937 1.00504L1.89997 2.23151L0.648609 2.4282C0.614109 2.43353 0.582566 2.45112 0.558416 2.47777C0.52922 2.51022 0.513131 2.55388 0.513686 2.59916C0.51424 2.64443 0.531392 2.68762 0.561373 2.71922L1.46675 3.67386L1.25285 5.02186C1.24784 5.05322 1.25104 5.08547 1.26211 5.11496C1.27318 5.14444 1.29167 5.16999 1.31548 5.18869C1.33929 5.20739 1.36746 5.2185 1.39682 5.22076C1.42617 5.22303 1.45552 5.21635 1.48154 5.20149L2.60082 4.56507L3.7201 5.20149C3.75065 5.21908 3.78614 5.22494 3.82015 5.21855C3.9059 5.20256 3.96357 5.11461 3.94878 5.02186L3.73488 3.67386L4.64026 2.71922C4.6649 2.69311 4.68117 2.65899 4.6861 2.62168C4.6994 2.5284 4.63928 2.44205 4.55303 2.4282Z" fill="#FDBF00"/>
</svg>
