<svg width="17" height="18" viewBox="0 0 17 18" fill="none" xmlns="http://www.w3.org/2000/svg">
<path d="M16.1368 6.34476L11.1377 5.56053L8.903 0.670297C8.84197 0.536406 8.74155 0.428017 8.61751 0.362134C8.30642 0.196363 7.92839 0.334505 7.77285 0.670297L5.53813 5.56053L0.539058 6.34476C0.401234 6.36601 0.275223 6.43614 0.178747 6.54241C0.0621115 6.67181 -0.00215972 6.8459 5.54169e-05 7.02642C0.00227055 7.20694 0.0707908 7.37913 0.19056 7.50515L3.80745 11.3115L2.95295 16.6863C2.93291 16.8113 2.94572 16.9399 2.98995 17.0575C3.03417 17.1751 3.10802 17.2769 3.20313 17.3515C3.29825 17.426 3.41081 17.4703 3.52806 17.4794C3.64532 17.4884 3.76257 17.4618 3.86652 17.4025L8.33792 14.8649L12.8093 17.4025C12.9314 17.4727 13.0732 17.496 13.209 17.4705C13.5516 17.4068 13.782 17.0561 13.7229 16.6863L12.8684 11.3115L16.4853 7.50515C16.5837 7.40102 16.6487 7.265 16.6684 7.11623C16.7216 6.74431 16.4814 6.40001 16.1368 6.34476V6.34476Z" fill="#FDBF00"/>
</svg>
