<svg width="19" height="17" viewBox="0 0 19 17" fill="none" xmlns="http://www.w3.org/2000/svg">
<path d="M18.1989 6.41006L12.561 5.68008L10.0407 1.12814C9.97187 1.00351 9.85862 0.902616 9.71873 0.84129C9.36788 0.686987 8.94154 0.815573 8.76612 1.12814L6.24584 5.68008L0.607943 6.41006C0.452507 6.42984 0.310394 6.49512 0.201588 6.59403C0.0700486 6.71448 -0.0024357 6.87653 6.24985e-05 7.04456C0.0025607 7.2126 0.079837 7.37288 0.214911 7.49018L4.294 11.0332L3.3303 16.0362C3.3077 16.1526 3.32215 16.2723 3.37203 16.3817C3.4219 16.4911 3.50519 16.5859 3.61246 16.6554C3.71972 16.7248 3.84667 16.766 3.97891 16.7744C4.11115 16.7828 4.24338 16.758 4.36062 16.7029L9.40341 14.3408L14.4462 16.7029C14.5839 16.7682 14.7438 16.7899 14.897 16.7662C15.2833 16.7068 15.5431 16.3804 15.4765 16.0362L14.5128 11.0332L18.5919 7.49018C18.7029 7.39325 18.7762 7.26664 18.7984 7.12816C18.8584 6.78197 18.5875 6.46149 18.1989 6.41006V6.41006Z" fill="#FDBF00"/>
</svg>
