<svg width="8" height="9" viewBox="0 0 8 9" fill="none" xmlns="http://www.w3.org/2000/svg">
<path d="M0.645996 6.64011C0.645996 7.00795 0.810552 7.33817 1.06793 7.56807V8.10311C1.06793 8.45005 1.35063 8.73011 1.70084 8.73011C2.05105 8.73011 2.33375 8.45005 2.33375 8.10311V7.89411H5.70926V8.10311C5.70926 8.44587 5.99196 8.73011 6.34217 8.73011C6.68816 8.73011 6.97508 8.45005 6.97508 8.10311V7.56807C7.23246 7.33817 7.39702 7.00795 7.39702 6.64011V2.46009C7.39702 0.997087 5.88648 0.788086 4.02151 0.788086C2.15654 0.788086 0.645996 0.997087 0.645996 2.46009V6.64011ZM2.12278 7.05811C1.77257 7.05811 1.48987 6.77805 1.48987 6.4311C1.48987 6.08416 1.77257 5.8041 2.12278 5.8041C2.47299 5.8041 2.75569 6.08416 2.75569 6.4311C2.75569 6.77805 2.47299 7.05811 2.12278 7.05811ZM5.92023 7.05811C5.57002 7.05811 5.28732 6.77805 5.28732 6.4311C5.28732 6.08416 5.57002 5.8041 5.92023 5.8041C6.27044 5.8041 6.55314 6.08416 6.55314 6.4311C6.55314 6.77805 6.27044 7.05811 5.92023 7.05811ZM6.55314 4.5501H1.48987V2.46009H6.55314V4.5501Z" fill="white"/>
</svg>
