<svg width="8" height="7" viewBox="0 0 8 7" fill="none" xmlns="http://www.w3.org/2000/svg">
<path d="M6.9412 1.40169C6.86216 1.1859 6.64082 1.03228 6.37996 1.03228H5.39185V0.666533C5.39185 0.465369 5.21399 0.300781 4.99661 0.300781H3.41563C3.19825 0.300781 3.02039 0.465369 3.02039 0.666533V1.03228H2.03228C1.77142 1.03228 1.55403 1.1859 1.47103 1.40169L0.692403 3.4755C0.664735 3.55231 0.648926 3.63278 0.648926 3.7169V6.33568C0.648926 6.63925 0.913739 6.88431 1.24179 6.88431C1.56984 6.88431 1.83466 6.63925 1.83466 6.33568V6.1528H6.57758V6.33568C6.57758 6.6356 6.84239 6.88431 7.17045 6.88431C7.49454 6.88431 7.76331 6.63925 7.76331 6.33568V3.7169C7.76331 3.63643 7.7475 3.55231 7.71983 3.4755L6.9412 1.40169ZM2.03228 5.05555C1.70423 5.05555 1.43941 4.8105 1.43941 4.50692C1.43941 4.20335 1.70423 3.9583 2.03228 3.9583C2.36033 3.9583 2.62514 4.20335 2.62514 4.50692C2.62514 4.8105 2.36033 5.05555 2.03228 5.05555ZM6.37996 5.05555C6.05191 5.05555 5.78709 4.8105 5.78709 4.50692C5.78709 4.20335 6.05191 3.9583 6.37996 3.9583C6.70801 3.9583 6.97282 4.20335 6.97282 4.50692C6.97282 4.8105 6.70801 5.05555 6.37996 5.05555ZM1.43941 3.22679L2.03228 1.58091H6.37996L6.97282 3.22679H1.43941Z" fill="white"/>
</svg>
