<svg width="5" height="6" viewBox="0 0 5 6" fill="none" xmlns="http://www.w3.org/2000/svg">
<path d="M4.0662 2.4282L2.81484 2.23151L2.25545 1.00504C2.24017 0.971455 2.21503 0.944271 2.18398 0.927748C2.10611 0.886172 2.01148 0.920819 1.97255 1.00504L1.41315 2.23151L0.161792 2.4282C0.127292 2.43353 0.0957491 2.45112 0.0715991 2.47777C0.0424032 2.51022 0.0263149 2.55388 0.0268693 2.59916C0.0274238 2.64443 0.0445757 2.68762 0.0745562 2.71922L0.979933 3.67386L0.766034 5.02186C0.761018 5.05322 0.764226 5.08547 0.775295 5.11496C0.786364 5.14444 0.804852 5.16999 0.82866 5.18869C0.852469 5.20739 0.880646 5.2185 0.909997 5.22076C0.939348 5.22303 0.968698 5.21635 0.994719 5.20149L2.114 4.56507L3.23327 5.20149C3.26383 5.21908 3.29931 5.22494 3.33332 5.21855C3.41908 5.20256 3.47674 5.11461 3.46196 5.02186L3.24806 3.67386L4.15343 2.71922C4.17808 2.69311 4.19434 2.65899 4.19927 2.62168C4.21258 2.5284 4.15245 2.44205 4.0662 2.4282Z" fill="#FDBF00"/>
</svg>
