<svg width="7" height="7" viewBox="0 0 7 7" fill="none" xmlns="http://www.w3.org/2000/svg">
<g clip-path="url(#clip0_1065_1081)">
<path d="M3.60757 5.85086C2.92222 5.85086 2.26494 5.57861 1.78032 5.09399C1.29571 4.60938 1.02346 3.9521 1.02346 3.26675C1.02346 2.5814 1.29571 1.92412 1.78032 1.4395C2.26494 0.954889 2.92222 0.682635 3.60757 0.682635C4.29292 0.682635 4.9502 0.954889 5.43481 1.4395C5.91943 1.92412 6.19168 2.5814 6.19168 3.26675C6.19168 3.9521 5.91943 4.60938 5.43481 5.09399C4.9502 5.57861 4.29292 5.85086 3.60757 5.85086ZM3.60757 6.22002C4.39082 6.22002 5.142 5.90887 5.69585 5.35503C6.24969 4.80118 6.56084 4.05 6.56084 3.26675C6.56084 2.48349 6.24969 1.73232 5.69585 1.17847C5.142 0.624624 4.39082 0.313477 3.60757 0.313477C2.82431 0.313477 2.07314 0.624624 1.51929 1.17847C0.965444 1.73232 0.654297 2.48349 0.654297 3.26675C0.654297 4.05 0.965444 4.80118 1.51929 5.35503C2.07314 5.90887 2.82431 6.22002 3.60757 6.22002Z" fill="#1262AF"/>
<path d="M2.9484 2.01288C2.98323 1.99495 3.02233 1.98697 3.06139 1.98982C3.10046 1.99268 3.13798 2.00626 3.16983 2.02906L4.66018 3.0936C4.68778 3.11329 4.71028 3.13929 4.7258 3.16944C4.74132 3.19958 4.74942 3.233 4.74942 3.26691C4.74942 3.30081 4.74132 3.33423 4.7258 3.36437C4.71028 3.39452 4.68778 3.42052 4.66018 3.44021L3.16983 4.50475C3.13799 4.52753 3.10049 4.5411 3.06144 4.54396C3.02239 4.54681 2.98332 4.53884 2.9485 4.52093C2.91369 4.50302 2.88449 4.47586 2.86412 4.44242C2.84374 4.40899 2.83298 4.37059 2.83301 4.33144V2.20237C2.83297 2.16323 2.84372 2.12483 2.86407 2.0914C2.88443 2.05798 2.91361 2.03081 2.9484 2.01288Z" fill="#1262AF"/>
</g>
<defs>
<clipPath id="clip0_1065_1081">
<rect width="6.27002" height="6.27002" fill="white" transform="translate(0.472656 0.131836)"/>
</clipPath>
</defs>
</svg>
