<svg width="25" height="25" viewBox="0 0 25 25" fill="none" xmlns="http://www.w3.org/2000/svg">
<g clip-path="url(#clip0_1003_25187)">
<path d="M12.8732 22.0915C10.2499 22.0915 7.73396 21.0494 5.87899 19.1944C4.02401 17.3394 2.98189 14.8236 2.98189 12.2002C2.98189 9.57688 4.02401 7.06099 5.87899 5.20601C7.73396 3.35103 10.2499 2.30892 12.8732 2.30892C15.4965 2.30892 18.0124 3.35103 19.8674 5.20601C21.7224 7.06099 22.7645 9.57688 22.7645 12.2002C22.7645 14.8236 21.7224 17.3394 19.8674 19.1944C18.0124 21.0494 15.4965 22.0915 12.8732 22.0915ZM12.8732 23.5046C15.8713 23.5046 18.7466 22.3136 20.8666 20.1936C22.9865 18.0736 24.1775 15.1983 24.1775 12.2002C24.1775 9.20212 22.9865 6.32682 20.8666 4.20684C18.7466 2.08686 15.8713 0.895874 12.8732 0.895874C9.87509 0.895874 6.99979 2.08686 4.87981 4.20684C2.75984 6.32682 1.56885 9.20212 1.56885 12.2002C1.56885 15.1983 2.75984 18.0736 4.87981 20.1936C6.99979 22.3136 9.87509 23.5046 12.8732 23.5046V23.5046Z" fill="#1262AF"/>
<path d="M10.3499 7.40011C10.4832 7.33147 10.6329 7.30093 10.7824 7.31186C10.9319 7.32279 11.0756 7.37476 11.1975 7.46205L16.9021 11.5368C17.0078 11.6122 17.0939 11.7117 17.1533 11.8271C17.2127 11.9425 17.2437 12.0704 17.2437 12.2002C17.2437 12.33 17.2127 12.4579 17.1533 12.5733C17.0939 12.6886 17.0078 12.7882 16.9021 12.8636L11.1975 16.9383C11.0756 17.0255 10.932 17.0775 10.7826 17.0884C10.6331 17.0993 10.4835 17.0688 10.3503 17.0003C10.217 16.9317 10.1053 16.8277 10.0273 16.6998C9.94928 16.5718 9.90808 16.4248 9.9082 16.275V8.12542C9.90805 7.9756 9.94919 7.82864 10.0271 7.70068C10.105 7.57273 10.2167 7.46873 10.3499 7.40011V7.40011Z" fill="#1262AF"/>
</g>
<defs>
<clipPath id="clip0_1003_25187">
<rect width="24" height="24" fill="white" transform="translate(0.873047 0.200195)"/>
</clipPath>
</defs>
</svg>
