<svg width="66" height="67" viewBox="0 0 66 67" fill="none" xmlns="http://www.w3.org/2000/svg">
<path d="M0.461426 16.9141C0.461426 8.0775 7.62487 0.914062 16.4614 0.914062H49.8485C58.685 0.914062 65.8485 8.07751 65.8485 16.9141V50.3011C65.8485 59.1377 58.685 66.3011 49.8485 66.3011H16.4614C7.62486 66.3011 0.461426 59.1377 0.461426 50.3011V16.9141Z" fill="#FF9B53"/>
<path d="M38.7607 18.9568C38.1018 18.3044 37.2084 17.938 36.2769 17.938C35.3454 17.938 34.452 18.3044 33.7931 18.9568L18.3656 34.2418C18.0393 34.565 17.7805 34.9488 17.6039 35.3711C17.4273 35.7934 17.3364 36.2461 17.3364 36.7032C17.3364 37.1603 17.4273 37.613 17.6039 38.0353C17.7805 38.4576 18.0393 38.8413 18.3656 39.1646L20.1958 40.9762C20.9923 41.7667 22.112 41.626 22.7882 41.2268C23.1612 41.0074 23.5973 40.9173 24.0277 40.9708C24.4582 41.0243 24.8584 41.2183 25.1651 41.5222C25.4718 41.8261 25.6677 42.2225 25.7217 42.6489C25.7757 43.0753 25.6847 43.5074 25.4633 43.8769C25.0619 44.5468 24.9182 45.6561 25.7162 46.4451L27.5481 48.2582C27.8743 48.5815 28.2617 48.8379 28.688 49.0128C29.1143 49.1878 29.5712 49.2778 30.0326 49.2778C30.4941 49.2778 30.951 49.1878 31.3773 49.0128C31.8036 48.8379 32.1909 48.5815 32.5172 48.2582L47.9431 32.9763C48.2694 32.6531 48.5282 32.2693 48.7048 31.847C48.8814 31.4247 48.9723 30.972 48.9723 30.5149C48.9723 30.0578 48.8814 29.6051 48.7048 29.1828C48.5282 28.7605 48.2694 28.3768 47.9431 28.0535L46.1144 26.2404C45.318 25.4514 44.1968 25.5906 43.5206 25.9897C43.1476 26.2091 42.7114 26.2992 42.281 26.2457C41.8505 26.1922 41.4504 25.9982 41.1436 25.6944C40.8369 25.3905 40.641 24.994 40.587 24.5676C40.5331 24.1412 40.624 23.7091 40.8455 23.3396C41.2484 22.6697 41.3905 21.5605 40.5925 20.7715L38.7622 18.9568H38.7607Z" fill="white"/>
</svg>
