<svg width="66" height="67" viewBox="0 0 66 67" fill="none" xmlns="http://www.w3.org/2000/svg">
<path d="M0.383789 16.9141C0.383789 8.0775 7.54723 0.914062 16.3838 0.914062H49.7708C58.6074 0.914062 65.7708 8.07751 65.7708 16.9141V50.3011C65.7708 59.1377 58.6074 66.3011 49.7708 66.3011H16.3838C7.54722 66.3011 0.383789 59.1377 0.383789 50.3011V16.9141Z" fill="#FDBF00"/>
<path d="M19.6182 41.5809C19.6182 43.0476 20.2743 44.3642 21.3005 45.2809V47.4142C21.3005 48.7975 22.4277 49.9142 23.8241 49.9142C25.2204 49.9142 26.3476 48.7975 26.3476 47.4142V46.5809H39.8065V47.4142C39.8065 48.7809 40.9337 49.9142 42.3301 49.9142C43.7096 49.9142 44.8536 48.7975 44.8536 47.4142V45.2809C45.8799 44.3642 46.536 43.0476 46.536 41.5809V24.9142C46.536 19.0809 40.5131 18.2476 33.0771 18.2476C25.641 18.2476 19.6182 19.0809 19.6182 24.9142V41.5809ZM25.5064 43.2476C24.1101 43.2476 22.9829 42.1309 22.9829 40.7476C22.9829 39.3642 24.1101 38.2476 25.5064 38.2476C26.9028 38.2476 28.03 39.3642 28.03 40.7476C28.03 42.1309 26.9028 43.2476 25.5064 43.2476ZM40.6477 43.2476C39.2514 43.2476 38.1242 42.1309 38.1242 40.7476C38.1242 39.3642 39.2514 38.2476 40.6477 38.2476C42.0441 38.2476 43.1713 39.3642 43.1713 40.7476C43.1713 42.1309 42.0441 43.2476 40.6477 43.2476ZM43.1713 33.2476H22.9829V24.9142H43.1713V33.2476Z" fill="white"/>
</svg>
