<svg width="119" height="25" viewBox="0 0 119 25" fill="none" xmlns="http://www.w3.org/2000/svg">
<line x1="5.54297" y1="12.7456" x2="109.095" y2="12.7456" stroke="#CCCCCC" stroke-dasharray="3 3"/>
<path d="M58.1233 22.6641H56.7578C56.6206 22.664 56.4856 22.6325 56.3652 22.5725C56.2447 22.5125 56.1427 22.4258 56.0683 22.3204C55.994 22.2151 55.9497 22.0943 55.9396 21.9693C55.9295 21.8443 55.9539 21.7189 56.0105 21.6047L59.3169 14.9367L54.3522 14.8359L52.5415 16.8408C52.1963 17.2373 51.9208 17.4141 51.2181 17.4141H50.2989C50.1534 17.4183 50.0089 17.3905 49.8776 17.3329C49.7464 17.2753 49.6322 17.1896 49.5449 17.0831C49.4228 16.9327 49.3028 16.6777 49.4198 16.3139L50.4364 12.9858C50.4441 12.9609 50.4533 12.9361 50.4636 12.9117C50.4641 12.9094 50.4641 12.907 50.4636 12.9047C50.453 12.8803 50.4439 12.8554 50.4364 12.8302L49.4187 9.48094C49.3085 9.12422 49.429 8.87484 49.55 8.72812C49.6313 8.62956 49.7368 8.54979 49.858 8.49524C49.9791 8.4407 50.1126 8.41289 50.2476 8.41406H51.2181C51.7428 8.41406 52.2522 8.62922 52.5518 8.97656L54.325 10.9477L59.3169 10.8802L56.0115 4.22391C55.9548 4.10974 55.9304 3.98442 55.9404 3.85939C55.9504 3.73436 55.9945 3.61362 56.0688 3.5082C56.143 3.40278 56.245 3.31604 56.3653 3.25593C56.4857 3.19581 56.6207 3.16423 56.7578 3.16406H58.1381C58.3307 3.1676 58.5199 3.21073 58.6918 3.29026C58.8636 3.36979 59.0136 3.48366 59.1307 3.62344L65.545 10.7484L68.5082 10.6772C68.7252 10.6664 69.3263 10.6627 69.4653 10.6627C72.2998 10.6641 73.9925 11.505 73.9925 12.9141C73.9925 13.3575 73.7986 14.1797 72.5014 14.7028C71.7356 15.0122 70.7138 15.1688 69.4643 15.1688C69.3268 15.1688 68.7272 15.165 68.5072 15.1542L65.5444 15.082L59.1143 22.207C58.9971 22.3462 58.8472 22.4595 58.6757 22.5386C58.5042 22.6177 58.3154 22.6606 58.1233 22.6641V22.6641Z" fill="#1262AE"/>
<circle cx="5.80176" cy="13.2456" r="4" fill="white" stroke="#1262AE" stroke-width="2"/>
<circle cx="113.152" cy="12.8286" r="4" fill="white" stroke="#1262AE" stroke-width="2"/>
</svg>
