<svg width="118" height="25" viewBox="0 0 118 25" fill="none" xmlns="http://www.w3.org/2000/svg">
<line x1="5.04297" y1="12.7456" x2="108.595" y2="12.7456" stroke="#CCCCCC" stroke-dasharray="3 3"/>
<g clip-path="url(#clip0_1810_14203)">
<path d="M57.6233 22.6641H56.2578C56.1206 22.664 55.9856 22.6325 55.8652 22.5725C55.7447 22.5125 55.6427 22.4258 55.5683 22.3204C55.494 22.2151 55.4497 22.0943 55.4396 21.9693C55.4295 21.8443 55.4539 21.7189 55.5105 21.6047L58.8169 14.9367L53.8522 14.8359L52.0415 16.8408C51.6963 17.2373 51.4208 17.4141 50.7181 17.4141H49.7989C49.6534 17.4183 49.5089 17.3905 49.3776 17.3329C49.2464 17.2753 49.1322 17.1896 49.0449 17.0831C48.9228 16.9327 48.8028 16.6777 48.9198 16.3139L49.9364 12.9858C49.9441 12.9609 49.9533 12.9361 49.9636 12.9117C49.9641 12.9094 49.9641 12.907 49.9636 12.9047C49.953 12.8803 49.9439 12.8554 49.9364 12.8302L48.9187 9.48094C48.8085 9.12422 48.929 8.87484 49.05 8.72812C49.1313 8.62956 49.2368 8.54979 49.358 8.49524C49.4791 8.4407 49.6126 8.41289 49.7476 8.41406H50.7181C51.2428 8.41406 51.7522 8.62922 52.0518 8.97656L53.825 10.9477L58.8169 10.8802L55.5115 4.22391C55.4548 4.10974 55.4304 3.98442 55.4404 3.85939C55.4504 3.73436 55.4945 3.61362 55.5688 3.5082C55.643 3.40278 55.745 3.31604 55.8653 3.25593C55.9857 3.19581 56.1207 3.16423 56.2578 3.16406H57.6381C57.8307 3.1676 58.0199 3.21073 58.1918 3.29026C58.3636 3.36979 58.5136 3.48366 58.6307 3.62344L65.045 10.7484L68.0082 10.6772C68.2252 10.6664 68.8263 10.6627 68.9653 10.6627C71.7998 10.6641 73.4925 11.505 73.4925 12.9141C73.4925 13.3575 73.2986 14.1797 72.0014 14.7028C71.2356 15.0122 70.2138 15.1688 68.9643 15.1688C68.8268 15.1688 68.2272 15.165 68.0072 15.1542L65.0444 15.082L58.6143 22.207C58.4971 22.3462 58.3472 22.4595 58.1757 22.5386C58.0042 22.6177 57.8154 22.6606 57.6233 22.6641V22.6641Z" fill="#1262AE"/>
</g>
<circle cx="5.30176" cy="13.2456" r="4" fill="white" stroke="#1262AE" stroke-width="2"/>
<circle cx="112.652" cy="12.8286" r="4" fill="white" stroke="#1262AE" stroke-width="2"/>
<defs>
<clipPath id="clip0_1810_14203">
<rect width="26.2624" height="24" fill="white" transform="translate(48.0508 0.914062)"/>
</clipPath>
</defs>
</svg>
