<svg width="66" height="67" viewBox="0 0 66 67" fill="none" xmlns="http://www.w3.org/2000/svg">
<rect y="0.914062" width="65.387" height="65.387" rx="16" fill="#F9668D"/>
<path d="M31.5492 29.0701H33.8394V27.9358C33.8394 27.6349 33.9601 27.3464 34.1748 27.1336C34.3896 26.9209 34.6808 26.8014 34.9845 26.8014H38.4199C38.7236 26.8014 39.0148 26.9209 39.2296 27.1336C39.4443 27.3464 39.565 27.6349 39.565 27.9358V29.0701H44.1454V24.5326C44.1454 23.3292 43.6629 22.1751 42.8039 21.3241C41.9449 20.4732 40.7798 19.9951 39.565 19.9951H25.8236C24.6088 19.9951 23.4438 20.4732 22.5847 21.3241C21.7257 22.1751 21.2432 23.3292 21.2432 24.5326V29.0701H25.8236V27.9358C25.8236 27.6349 25.9443 27.3464 26.159 27.1336C26.3738 26.9209 26.665 26.8014 26.9687 26.8014H30.4041C30.7078 26.8014 30.999 26.9209 31.2138 27.1336C31.4285 27.3464 31.5492 27.6349 31.5492 27.9358V29.0701Z" fill="white"/>
<path d="M22.3884 31.3389C20.87 31.3389 19.4137 31.9364 18.34 33.0001C17.2663 34.0638 16.6631 35.5065 16.6631 37.0107V46.0858C16.6631 46.3866 16.7837 46.6752 16.9985 46.8879C17.2132 47.1006 17.5045 47.2201 17.8082 47.2201C18.1118 47.2201 18.4031 47.1006 18.6178 46.8879C18.8326 46.6752 18.9532 46.3866 18.9532 46.0858V40.4139H46.4348V46.0858C46.4348 46.3866 46.5554 46.6752 46.7702 46.8879C46.9849 47.1006 47.2762 47.2201 47.5798 47.2201C47.8835 47.2201 48.1748 47.1006 48.3895 46.8879C48.6043 46.6752 48.7249 46.3866 48.7249 46.0858V37.0107C48.7249 35.5065 48.1217 34.0638 47.048 33.0001C45.9743 31.9364 44.518 31.3389 42.9996 31.3389H22.3884Z" fill="white"/>
</svg>
