<svg width="174" height="34" viewBox="0 0 174 34" fill="none" xmlns="http://www.w3.org/2000/svg">
<g clip-path="url(#clip0_1003_4174)">
<path d="M129.851 8.36005C131.214 8.36005 132.452 8.53344 133.564 8.88023C134.676 9.22701 135.615 9.67544 136.38 10.2255C136.858 10.5603 137.235 10.931 137.51 11.3376C137.785 11.7442 137.923 12.2704 137.923 12.9161V25.4722L137.917 25.8136C137.877 26.9372 137.64 27.9176 137.205 28.7547C136.727 29.6754 136.075 30.4408 135.25 31.0506C134.425 31.6605 133.456 32.1089 132.344 32.3959C131.232 32.6829 130.042 32.8264 128.775 32.8264C126.598 32.8264 124.888 32.5334 123.645 31.9475C122.401 31.3615 121.779 30.4109 121.779 29.0955C121.779 28.5454 121.893 28.0611 122.12 27.6426C122.347 27.224 122.604 26.9071 122.891 26.6919C123.585 27.0745 124.368 27.3974 125.241 27.6605C126.114 27.9236 127.017 28.0551 127.95 28.0551C129.241 28.0551 130.269 27.8399 131.035 27.4094C131.8 26.9789 132.183 26.2853 132.183 25.3287V24.7547L131.91 24.8667C130.983 25.2225 129.878 25.4004 128.595 25.4004C127.519 25.4004 126.497 25.239 125.528 24.9161C124.559 24.5932 123.71 24.091 122.981 23.4094C122.251 22.7278 121.665 21.8488 121.223 20.7726C120.781 19.6964 120.559 18.4169 120.559 16.934C120.559 15.4751 120.793 14.2076 121.259 13.1313C121.725 12.0551 122.371 11.1642 123.196 10.4587C124.021 9.75317 125.002 9.22701 126.138 8.88023C127.274 8.53344 128.512 8.36005 129.851 8.36005ZM33.2869 8.91697C35.4197 8.91697 37.165 9.39555 38.5227 10.3527C39.8804 11.3099 40.6841 13.0005 40.9338 15.4246H36.3769L36.3333 15.1565C36.2301 14.6278 36.0313 14.1449 35.737 13.708C35.2377 13.0213 34.4626 12.678 33.4118 12.678C31.9136 12.678 30.8888 13.4219 30.3374 14.9096C30.0461 15.7003 29.9004 16.7511 29.9004 18.062C29.9004 19.3105 30.0461 20.3145 30.3374 21.074C30.868 22.4889 31.8668 23.1964 33.3337 23.1964C34.3741 23.1964 35.1128 22.9155 35.5498 22.3536C35.9867 21.7918 36.252 21.0636 36.3457 20.1688H40.887L40.8561 20.4796C40.7054 21.7178 40.2267 22.8938 39.42 24.0079C38.0259 25.9534 35.9607 26.9262 33.2245 26.9262C30.4883 26.9262 28.4751 26.1147 27.185 24.4916C25.8949 22.8686 25.2499 20.7618 25.2499 18.1713C25.2499 15.2478 25.9626 12.9745 27.3879 11.3515C28.8132 9.72847 30.7796 8.91697 33.2869 8.91697ZM74.6185 8.87015C76.0334 8.87015 77.3079 9.13545 78.4419 9.66605C79.5759 10.1967 80.5123 11.0342 81.251 12.1786C81.9168 13.1878 82.3486 14.3582 82.5462 15.6899C82.6607 16.4702 82.7075 17.5938 82.6867 19.0608H71.0447L71.0606 19.3566C71.1718 20.906 71.7023 22.0039 72.6521 22.6502C73.2659 23.0767 74.0046 23.29 74.8681 23.29C75.7837 23.29 76.5276 23.0299 77.0998 22.5097C77.4119 22.2288 77.6876 21.8386 77.9269 21.3393H82.4682L82.4345 21.5724C82.2705 22.5062 81.7563 23.4533 80.892 24.4136C79.4355 26.0678 77.3963 26.895 74.7745 26.895C72.6105 26.895 70.7014 26.1979 69.0471 24.8038C67.3929 23.4096 66.5658 21.1416 66.5658 17.9996C66.5658 15.0553 67.3123 12.7976 68.8053 11.2266C70.2982 9.65565 72.236 8.87015 74.6185 8.87015ZM105.848 2.62014C106.374 2.62014 106.846 2.65601 107.265 2.72776C107.683 2.79951 108.036 2.94301 108.323 3.15825C108.61 3.3735 108.831 3.66648 108.987 4.03718C109.142 4.40788 109.22 4.89219 109.22 5.49009V26.2973L109.099 26.3189C108.843 26.3643 108.495 26.4228 108.054 26.4946C107.54 26.5783 107.019 26.6201 106.493 26.6201C105.967 26.6201 105.495 26.5843 105.076 26.5125C104.658 26.4408 104.305 26.2973 104.018 26.082C103.731 25.8668 103.51 25.5738 103.354 25.2031C103.199 24.8324 103.121 24.3481 103.121 23.7502V2.94301L103.242 2.92141C103.498 2.87602 103.846 2.81745 104.287 2.7457C104.801 2.66199 105.321 2.62014 105.848 2.62014ZM115.015 8.82642C115.541 8.82642 116.014 8.86229 116.432 8.93404C116.851 9.00579 117.203 9.14929 117.49 9.36453C117.777 9.57978 117.999 9.87275 118.154 10.2435C118.31 10.6142 118.387 11.0985 118.387 11.6964V26.2973L118.267 26.3189C118.011 26.3643 117.662 26.4228 117.221 26.4946C116.707 26.5783 116.187 26.6201 115.661 26.6201C115.135 26.6201 114.662 26.5843 114.244 26.5125C113.825 26.4408 113.473 26.2973 113.186 26.082C112.899 25.8668 112.677 25.5738 112.522 25.2031C112.366 24.8324 112.289 24.3481 112.289 23.7502V9.14929L112.409 9.12769C112.665 9.0823 113.014 9.02373 113.455 8.95198C113.969 8.86827 114.489 8.82642 115.015 8.82642ZM143.574 2.62014C144.101 2.62014 144.573 2.65601 144.991 2.72776C145.41 2.79951 145.763 2.94301 146.05 3.15825C146.337 3.3735 146.558 3.66648 146.713 4.03718C146.869 4.40788 146.947 4.89219 146.947 5.49009V9.00579L147.071 8.9601C147.378 8.85155 147.809 8.72926 148.364 8.59323C148.997 8.43778 149.697 8.36005 150.462 8.36005C152.83 8.36005 154.678 8.95198 156.005 10.1358C157.332 11.3197 157.996 13.0835 157.996 15.4273V26.2973L157.885 26.328C157.646 26.3895 157.307 26.451 156.866 26.5125C156.352 26.5843 155.82 26.6201 155.27 26.6201C154.743 26.6201 154.271 26.5843 153.852 26.5125C153.434 26.4408 153.081 26.2973 152.794 26.082C152.507 25.8668 152.286 25.5738 152.131 25.2031C151.975 24.8324 151.897 24.3481 151.897 23.7502V15.7861L151.893 15.565C151.858 14.7014 151.614 14.0875 151.162 13.7233C150.672 13.3287 150.068 13.1313 149.35 13.1313C148.872 13.1313 148.417 13.1911 147.987 13.3107C147.557 13.4303 147.21 13.5738 146.947 13.7412V26.2973L146.836 26.328C146.597 26.3895 146.257 26.451 145.817 26.5125C145.302 26.5843 144.77 26.6201 144.22 26.6201C143.694 26.6201 143.222 26.5843 142.803 26.5125C142.385 26.4408 142.032 26.2973 141.745 26.082C141.458 25.8668 141.237 25.5738 141.081 25.2031C140.926 24.8324 140.848 24.3481 140.848 23.7502V2.94301L140.968 2.92141C141.225 2.87602 141.573 2.81745 142.014 2.7457C142.528 2.66199 143.048 2.62014 143.574 2.62014ZM100.626 4.59323L100.708 4.73225C100.843 4.97639 100.965 5.28282 101.075 5.65153C101.206 6.09398 101.272 6.55437 101.272 7.03269C101.272 7.96543 101.075 8.62911 100.68 9.02373C100.285 9.41834 99.7533 9.61565 99.0836 9.61565H91.55V13.6695H99.4065L99.4997 13.808C99.6508 14.0505 99.7812 14.3511 99.8908 14.7098C100.022 15.1403 100.088 15.5947 100.088 16.0731C100.088 16.9819 99.8908 17.6336 99.4962 18.0282C99.1016 18.4228 98.5694 18.6201 97.8998 18.6201H91.6217V26.1896L91.4998 26.2204C91.2377 26.2819 90.8658 26.3434 90.3841 26.4049C89.822 26.4766 89.266 26.5125 88.7159 26.5125C88.1658 26.5125 87.6815 26.4707 87.263 26.387C86.8445 26.3032 86.4917 26.1538 86.2047 25.9385C85.9177 25.7233 85.7025 25.4243 85.559 25.0417C85.4155 24.659 85.3437 24.1568 85.3437 23.5349V7.92955L85.3499 7.67694C85.3956 6.76712 85.6925 6.03817 86.2406 5.49009C86.8385 4.89219 87.6516 4.59323 88.68 4.59323H100.626ZM16.3082 3.36127V7.4032H4.7754V12.6936H14.8724V16.6887H4.7754V26.3331H0V3.36127H16.3082ZM22.8234 9.32272V26.3331H18.3133V9.32272H22.8234ZM47.4022 3.40809V15.7992L52.9423 9.40075H58.4512L52.5054 15.9084L58.6853 26.3331H53.3169L49.2437 19.0608L47.4022 20.9803V26.3331H43.0326V3.40809H47.4022ZM64.4827 3.33006V26.3331H60.035V3.33006H64.4827ZM158.328 4.4457C159.074 4.22151 160.346 4.17164 161.836 4.83036C163.339 5.49533 164.277 6.63593 164.649 8.25213L172.721 8.93816C172.821 8.94395 172.92 8.9642 173.019 8.99891C173.167 9.05097 173.247 9.1242 173.314 9.18153C173.478 9.3221 173.531 9.43049 173.609 9.62458C173.748 9.96971 173.706 10.3759 173.525 10.6544C173.233 11.1035 172.777 11.394 172.156 11.5261L165.639 12.9111L166.79 18.3227C166.922 18.9439 167.213 19.3441 167.663 19.5231C168.113 19.7021 168.696 19.7154 169.413 19.5631C169.772 19.4869 170.136 19.3783 170.505 19.2373C170.875 19.0963 171.193 18.9476 171.459 18.7911C171.73 19.0082 171.977 19.2615 172.201 19.5511C172.425 19.8406 172.585 20.2123 172.682 20.6663C173.038 22.3444 170.397 23.9298 168.666 24.241C167.062 24.5291 164.602 24.7685 163.195 21.0838C161.789 17.3991 159.58 11.2226 157.894 6.07542C157.748 5.63123 157.658 5.19496 157.814 4.83495C157.899 4.64037 157.96 4.55637 158.328 4.4457ZM130.138 13.1313C128.966 13.1313 128.087 13.4602 127.501 14.1179C126.915 14.7756 126.622 15.7143 126.622 16.934C126.622 18.3212 126.915 19.3197 127.501 19.9296C128.087 20.5394 128.834 20.8444 129.743 20.8444C130.724 20.8444 131.501 20.6171 132.075 20.1627V13.5618L131.965 13.5044C131.806 13.4279 131.598 13.3514 131.34 13.2748C131.017 13.1792 130.616 13.1313 130.138 13.1313ZM74.6185 12.5375C73.5885 12.5375 72.79 12.8601 72.2229 13.5051C71.6559 14.1501 71.2996 15.0241 71.1539 16.1269H78.0674C77.9945 14.9512 77.6382 14.0591 76.9984 13.4505C76.3585 12.8418 75.5652 12.5375 74.6185 12.5375ZM22.8234 3.18961V7.29396H18.3133V3.18961H22.8234ZM115.338 0.826416C116.342 0.826416 117.15 1.13733 117.76 1.75915C118.369 2.38098 118.674 3.1463 118.674 4.05512C118.674 4.96393 118.369 5.72926 117.76 6.35108C117.15 6.9729 116.342 7.28381 115.338 7.28381C114.334 7.28381 113.526 6.9729 112.916 6.35108C112.307 5.72926 112.002 4.96393 112.002 4.05512C112.002 3.1463 112.307 2.38098 112.916 1.75915C113.526 1.13733 114.334 0.826416 115.338 0.826416Z" fill="white"/>
</g>
<defs>
<clipPath id="clip0_1003_4174">
<rect width="174" height="33" fill="white" transform="translate(0 0.301025)"/>
</clipPath>
</defs>
</svg>
