<svg width="66" height="67" viewBox="0 0 66 67" fill="none" xmlns="http://www.w3.org/2000/svg">
<path d="M0.612793 16.9141C0.612793 8.0775 7.77624 0.914062 16.6128 0.914062H49.9998C58.8364 0.914062 65.9998 8.07751 65.9998 16.9141V50.3011C65.9998 59.1377 58.8364 66.3011 49.9998 66.3011H16.6128C7.77623 66.3011 0.612793 59.1377 0.612793 50.3011V16.9141Z" fill="#79CA00"/>
<path d="M43.7497 21.9678H22.8624C21.4225 21.9678 20.2515 23.1278 20.2515 24.5543V42.6603C20.2515 44.0867 21.4225 45.2468 22.8624 45.2468H43.7497C45.1896 45.2468 46.3606 44.0867 46.3606 42.6603V24.5543C46.3606 23.1278 45.1896 21.9678 43.7497 21.9678ZM43.751 29.7275C43.7497 29.7275 43.7497 29.7275 43.751 29.7275H43.1439L39.6623 24.5543H43.7497L43.751 29.7275ZM37.8751 37.4871L30.6951 41.367V33.6073L37.8751 37.4871ZM36.6167 29.7275L33.135 24.5543H36.524L40.0056 29.7275H36.6167V29.7275ZM33.4784 29.7275H30.0894L26.6077 24.5543H29.9967L33.4784 29.7275ZM22.8624 24.5543H23.4694L26.9511 29.7275H22.8624V24.5543Z" fill="white"/>
</svg>
