<svg width="130" height="31" viewBox="0 0 130 31" fill="none" xmlns="http://www.w3.org/2000/svg">
<path d="M15.0001 1.10352C7.0471 1.10352 0.600098 7.55052 0.600098 15.5035C0.600098 23.4565 7.0471 29.9035 15.0001 29.9035C22.9531 29.9035 29.4001 23.4565 29.4001 15.5035C29.4001 7.55052 22.9531 1.10352 15.0001 1.10352ZM18.4111 11.0545H16.2466C15.9901 11.0545 15.7051 11.392 15.7051 11.8405V13.4035H18.4126L18.0031 15.6325H15.7051V22.324H13.1506V15.6325H10.8331V13.4035H13.1506V12.0925C13.1506 10.2115 14.4556 8.68302 16.2466 8.68302H18.4111V11.0545Z" fill="white"/>
<path d="M115 1.10352C107.047 1.10352 100.6 7.55052 100.6 15.5035C100.6 23.4565 107.047 29.9035 115 29.9035C122.953 29.9035 129.4 23.4565 129.4 15.5035C129.4 7.55052 122.953 1.10352 115 1.10352ZM120.858 12.8995C120.864 13.0225 120.865 13.1455 120.865 13.2655C120.865 17.0155 118.014 21.337 112.797 21.337C111.255 21.3396 109.746 20.8968 108.45 20.062C108.67 20.089 108.897 20.0995 109.126 20.0995C110.455 20.0995 111.678 19.648 112.648 18.886C112.057 18.8744 111.484 18.6786 111.009 18.3258C110.534 17.973 110.181 17.4809 109.999 16.918C110.424 16.9988 110.861 16.9819 111.279 16.8685C110.637 16.7387 110.059 16.3909 109.645 15.884C109.23 15.3771 109.003 14.7424 109.003 14.0875V14.053C109.386 14.2645 109.824 14.3935 110.289 14.4085C109.687 14.0079 109.261 13.3925 109.098 12.6882C108.935 11.9839 109.047 11.2439 109.411 10.6195C110.124 11.4955 111.012 12.2121 112.019 12.723C113.026 13.2338 114.129 13.5275 115.257 13.585C115.113 12.9765 115.175 12.3376 115.432 11.7678C115.689 11.1979 116.128 10.729 116.679 10.4339C117.23 10.1388 117.863 10.0341 118.48 10.136C119.097 10.2379 119.663 10.5408 120.09 10.9975C120.724 10.8719 121.333 10.6391 121.89 10.309C121.678 10.9662 121.235 11.5243 120.643 11.8795C121.205 11.8118 121.754 11.6606 122.272 11.431C121.892 12.0009 121.413 12.4982 120.858 12.8995Z" fill="white"/>
<path d="M69.5001 15.5035C69.5001 16.697 69.026 17.8416 68.1821 18.6855C67.3382 19.5294 66.1936 20.0035 65.0001 20.0035C63.8066 20.0035 62.662 19.5294 61.8181 18.6855C60.9742 17.8416 60.5001 16.697 60.5001 15.5035C60.5001 15.247 60.5271 14.9965 60.5736 14.7535H59.0001V20.749C59.0001 21.166 59.3376 21.5035 59.7546 21.5035H70.2471C70.4469 21.5031 70.6385 21.4235 70.7796 21.282C70.9208 21.1405 71.0001 20.9489 71.0001 20.749V14.7535H69.4266C69.4731 14.9965 69.5001 15.247 69.5001 15.5035ZM65.0001 18.5035C65.3942 18.5034 65.7844 18.4257 66.1484 18.2748C66.5124 18.1239 66.8432 17.9028 67.1217 17.6241C67.4003 17.3454 67.6213 17.0145 67.772 16.6504C67.9227 16.2863 68.0002 15.8961 68.0001 15.502C68 15.108 67.9223 14.7178 67.7714 14.3537C67.6205 13.9897 67.3994 13.659 67.1207 13.3804C66.842 13.1018 66.5111 12.8809 66.147 12.7301C65.7829 12.5794 65.3927 12.5019 64.9986 12.502C64.2028 12.5022 63.4396 12.8186 62.877 13.3814C62.3144 13.9443 61.9984 14.7077 61.9986 15.5035C61.9988 16.2994 62.3151 17.0625 62.878 17.6251C63.4409 18.1878 64.2043 18.5037 65.0001 18.5035ZM68.6001 12.3535H70.3986C70.5181 12.3535 70.6327 12.3062 70.7173 12.2218C70.802 12.1375 70.8497 12.023 70.8501 11.9035V10.105C70.8501 9.98527 70.8025 9.87043 70.7179 9.78576C70.6332 9.70108 70.5183 9.65351 70.3986 9.65351H68.6001C68.4804 9.65351 68.3655 9.70108 68.2808 9.78576C68.1962 9.87043 68.1486 9.98527 68.1486 10.105V11.9035C68.1501 12.151 68.3526 12.3535 68.6001 12.3535ZM65.0001 1.10352C61.181 1.10352 57.5183 2.62065 54.8178 5.32118C52.1172 8.0217 50.6001 11.6844 50.6001 15.5035C50.6001 19.3226 52.1172 22.9853 54.8178 25.6859C57.5183 28.3864 61.181 29.9035 65.0001 29.9035C66.8911 29.9035 68.7637 29.531 70.5107 28.8074C72.2578 28.0837 73.8453 27.023 75.1824 25.6859C76.5196 24.3487 77.5803 22.7612 78.304 21.0142C79.0276 19.2671 79.4001 17.3946 79.4001 15.5035C79.4001 13.6125 79.0276 11.74 78.304 9.99287C77.5803 8.24579 76.5196 6.65834 75.1824 5.32118C73.8453 3.98401 72.2578 2.92332 70.5107 2.19965C68.7637 1.47598 66.8911 1.10352 65.0001 1.10352ZM72.5001 21.337C72.5001 22.2535 71.7501 23.0035 70.8336 23.0035H59.1666C58.2501 23.0035 57.5001 22.2535 57.5001 21.337V9.67002C57.5001 8.75352 58.2501 8.00352 59.1666 8.00352H70.8336C71.7501 8.00352 72.5001 8.75352 72.5001 9.67002V21.337Z" fill="white"/>
</svg>
