<svg width="130" height="31" viewBox="0 0 130 31" fill="none" xmlns="http://www.w3.org/2000/svg">
<g clip-path="url(#clip0_1003_4180)">
<path d="M15.0001 0.986816C7.0471 0.986816 0.600098 7.43382 0.600098 15.3868C0.600098 23.3398 7.0471 29.7868 15.0001 29.7868C22.9531 29.7868 29.4001 23.3398 29.4001 15.3868C29.4001 7.43382 22.9531 0.986816 15.0001 0.986816ZM18.4111 10.9378H16.2466C15.9901 10.9378 15.7051 11.2753 15.7051 11.7238V13.2868H18.4126L18.0031 15.5158H15.7051V22.2073H13.1506V15.5158H10.8331V13.2868H13.1506V11.9758C13.1506 10.0948 14.4556 8.56632 16.2466 8.56632H18.4111V10.9378Z" fill="white"/>
</g>
<g clip-path="url(#clip1_1003_4180)">
<path d="M115 0.986816C107.047 0.986816 100.6 7.43382 100.6 15.3868C100.6 23.3398 107.047 29.7868 115 29.7868C122.953 29.7868 129.4 23.3398 129.4 15.3868C129.4 7.43382 122.953 0.986816 115 0.986816ZM120.858 12.7828C120.864 12.9058 120.865 13.0288 120.865 13.1488C120.865 16.8988 118.014 21.2203 112.797 21.2203C111.255 21.2229 109.746 20.7801 108.45 19.9453C108.67 19.9723 108.897 19.9828 109.126 19.9828C110.455 19.9828 111.678 19.5313 112.648 18.7693C112.057 18.7577 111.484 18.5619 111.009 18.2091C110.534 17.8563 110.181 17.3642 109.999 16.8013C110.424 16.8821 110.861 16.8652 111.279 16.7518C110.637 16.622 110.059 16.2742 109.645 15.7673C109.23 15.2604 109.003 14.6257 109.003 13.9708V13.9363C109.386 14.1478 109.824 14.2768 110.289 14.2918C109.687 13.8912 109.261 13.2758 109.098 12.5715C108.935 11.8672 109.047 11.1272 109.411 10.5028C110.124 11.3788 111.012 12.0954 112.019 12.6063C113.026 13.1171 114.129 13.4108 115.257 13.4683C115.113 12.8598 115.175 12.2209 115.432 11.6511C115.689 11.0812 116.128 10.6123 116.679 10.3172C117.23 10.0221 117.863 9.9174 118.48 10.0193C119.097 10.1212 119.663 10.4241 120.09 10.8808C120.724 10.7552 121.333 10.5224 121.89 10.1923C121.678 10.8495 121.235 11.4076 120.643 11.7628C121.205 11.6951 121.754 11.5439 122.272 11.3143C121.892 11.8842 121.413 12.3815 120.858 12.7828Z" fill="white"/>
</g>
<g clip-path="url(#clip2_1003_4180)">
<path d="M69.5001 15.3868C69.5001 16.5803 69.026 17.7249 68.1821 18.5688C67.3382 19.4127 66.1936 19.8868 65.0001 19.8868C63.8066 19.8868 62.662 19.4127 61.8181 18.5688C60.9742 17.7249 60.5001 16.5803 60.5001 15.3868C60.5001 15.1303 60.5271 14.8798 60.5736 14.6368H59.0001V20.6323C59.0001 21.0493 59.3376 21.3868 59.7546 21.3868H70.2471C70.4469 21.3864 70.6385 21.3068 70.7796 21.1653C70.9208 21.0238 71.0001 20.8322 71.0001 20.6323V14.6368H69.4266C69.4731 14.8798 69.5001 15.1303 69.5001 15.3868ZM65.0001 18.3868C65.3942 18.3867 65.7844 18.309 66.1484 18.1581C66.5124 18.0072 66.8432 17.7861 67.1217 17.5074C67.4003 17.2287 67.6213 16.8978 67.772 16.5337C67.9227 16.1696 68.0002 15.7794 68.0001 15.3853C68 14.9913 67.9223 14.6011 67.7714 14.237C67.6205 13.873 67.3994 13.5423 67.1207 13.2637C66.842 12.9851 66.5111 12.7642 66.147 12.6134C65.7829 12.4627 65.3927 12.3852 64.9986 12.3853C64.2028 12.3855 63.4396 12.7019 62.877 13.2647C62.3144 13.8276 61.9984 14.591 61.9986 15.3868C61.9988 16.1827 62.3151 16.9458 62.878 17.5084C63.4409 18.0711 64.2043 18.387 65.0001 18.3868ZM68.6001 12.2368H70.3986C70.5181 12.2368 70.6327 12.1895 70.7173 12.1051C70.802 12.0208 70.8497 11.9063 70.8501 11.7868V9.98832C70.8501 9.86857 70.8025 9.75373 70.7179 9.66906C70.6332 9.58438 70.5183 9.53682 70.3986 9.53682H68.6001C68.4804 9.53682 68.3655 9.58438 68.2808 9.66906C68.1962 9.75373 68.1486 9.86857 68.1486 9.98832V11.7868C68.1501 12.0343 68.3526 12.2368 68.6001 12.2368ZM65.0001 0.986816C61.181 0.986816 57.5183 2.50395 54.8178 5.20448C52.1172 7.905 50.6001 11.5677 50.6001 15.3868C50.6001 19.2059 52.1172 22.8686 54.8178 25.5692C57.5183 28.2697 61.181 29.7868 65.0001 29.7868C66.8911 29.7868 68.7637 29.4144 70.5107 28.6907C72.2578 27.967 73.8453 26.9063 75.1824 25.5692C76.5196 24.232 77.5803 22.6445 78.304 20.8975C79.0276 19.1504 79.4001 17.2779 79.4001 15.3868C79.4001 13.4958 79.0276 11.6233 78.304 9.87617C77.5803 8.12909 76.5196 6.54164 75.1824 5.20448C73.8453 3.86731 72.2578 2.80662 70.5107 2.08295C68.7637 1.35928 66.8911 0.986816 65.0001 0.986816ZM72.5001 21.2203C72.5001 22.1368 71.7501 22.8868 70.8336 22.8868H59.1666C58.2501 22.8868 57.5001 22.1368 57.5001 21.2203V9.55332C57.5001 8.63682 58.2501 7.88682 59.1666 7.88682H70.8336C71.7501 7.88682 72.5001 8.63682 72.5001 9.55332V21.2203Z" fill="white"/>
</g>
<defs>
<clipPath id="clip0_1003_4180">
<rect width="30" height="30" fill="white" transform="translate(0 0.386719)"/>
</clipPath>
<clipPath id="clip1_1003_4180">
<rect width="30" height="30" fill="white" transform="translate(100 0.386719)"/>
</clipPath>
<clipPath id="clip2_1003_4180">
<rect width="30" height="30" fill="white" transform="translate(50 0.386719)"/>
</clipPath>
</defs>
</svg>
