<svg width="130" height="31" viewBox="0 0 130 31" fill="none" xmlns="http://www.w3.org/2000/svg">
<g clip-path="url(#clip0_1003_4180)">
<path d="M15.0001 0.901123C7.0471 0.901123 0.600098 7.34812 0.600098 15.3011C0.600098 23.2541 7.0471 29.7011 15.0001 29.7011C22.9531 29.7011 29.4001 23.2541 29.4001 15.3011C29.4001 7.34812 22.9531 0.901123 15.0001 0.901123ZM18.4111 10.8521H16.2466C15.9901 10.8521 15.7051 11.1896 15.7051 11.6381V13.2011H18.4126L18.0031 15.4301H15.7051V22.1216H13.1506V15.4301H10.8331V13.2011H13.1506V11.8901C13.1506 10.0091 14.4556 8.48062 16.2466 8.48062H18.4111V10.8521V10.8521Z" fill="white"/>
</g>
<g clip-path="url(#clip1_1003_4180)">
<path d="M115 0.901123C107.047 0.901123 100.6 7.34812 100.6 15.3011C100.6 23.2541 107.047 29.7011 115 29.7011C122.953 29.7011 129.4 23.2541 129.4 15.3011C129.4 7.34812 122.953 0.901123 115 0.901123ZM120.858 12.6971C120.864 12.8201 120.865 12.9431 120.865 13.0631C120.865 16.8131 118.014 21.1346 112.797 21.1346C111.255 21.1372 109.746 20.6944 108.45 19.8596C108.67 19.8866 108.897 19.8971 109.126 19.8971C110.455 19.8971 111.678 19.4456 112.648 18.6836C112.057 18.672 111.484 18.4762 111.009 18.1234C110.534 17.7706 110.181 17.2785 109.999 16.7156C110.424 16.7964 110.861 16.7795 111.279 16.6661C110.637 16.5363 110.059 16.1885 109.645 15.6816C109.23 15.1748 109.003 14.54 109.003 13.8851V13.8506C109.386 14.0621 109.824 14.1911 110.289 14.2061C109.687 13.8055 109.261 13.1901 109.098 12.4858C108.935 11.7815 109.047 11.0415 109.411 10.4171C110.124 11.2931 111.012 12.0097 112.019 12.5206C113.026 13.0314 114.129 13.3251 115.257 13.3826C115.113 12.7741 115.175 12.1352 115.432 11.5654C115.689 10.9955 116.128 10.5266 116.679 10.2315C117.23 9.93643 117.863 9.83171 118.48 9.93363C119.097 10.0356 119.663 10.3384 120.09 10.7951C120.724 10.6695 121.333 10.4367 121.89 10.1066C121.678 10.7638 121.235 11.3219 120.643 11.6771C121.205 11.6094 121.754 11.4582 122.272 11.2286C121.892 11.7985 121.413 12.2958 120.858 12.6971V12.6971Z" fill="white"/>
</g>
<g clip-path="url(#clip2_1003_4180)">
<path d="M69.5001 15.3011C69.5001 16.4946 69.026 17.6392 68.1821 18.4831C67.3382 19.327 66.1936 19.8011 65.0001 19.8011C63.8066 19.8011 62.662 19.327 61.8181 18.4831C60.9742 17.6392 60.5001 16.4946 60.5001 15.3011C60.5001 15.0446 60.5271 14.7941 60.5736 14.5511H59.0001V20.5466C59.0001 20.9636 59.3376 21.3011 59.7546 21.3011H70.2471C70.4469 21.3007 70.6385 21.2211 70.7796 21.0796C70.9208 20.9382 71.0001 20.7465 71.0001 20.5466V14.5511H69.4266C69.4731 14.7941 69.5001 15.0446 69.5001 15.3011V15.3011ZM65.0001 18.3011C65.3942 18.301 65.7844 18.2233 66.1484 18.0724C66.5124 17.9215 66.8432 17.7004 67.1217 17.4217C67.4003 17.143 67.6213 16.8121 67.772 16.448C67.9227 16.0839 68.0002 15.6937 68.0001 15.2996C68 14.9056 67.9223 14.5154 67.7714 14.1513C67.6205 13.7873 67.3994 13.4566 67.1207 13.178C66.842 12.8994 66.5111 12.6785 66.147 12.5278C65.7829 12.377 65.3927 12.2995 64.9986 12.2996C64.2028 12.2998 63.4396 12.6162 62.877 13.1791C62.3144 13.7419 61.9984 14.5053 61.9986 15.3011C61.9988 16.097 62.3151 16.8601 62.878 17.4228C63.4409 17.9854 64.2043 18.3013 65.0001 18.3011V18.3011ZM68.6001 12.1511H70.3986C70.5181 12.1511 70.6327 12.1038 70.7173 12.0194C70.802 11.9351 70.8497 11.8206 70.8501 11.7011V9.90262C70.8501 9.78288 70.8025 9.66804 70.7179 9.58336C70.6332 9.49869 70.5183 9.45112 70.3986 9.45112H68.6001C68.4804 9.45112 68.3655 9.49869 68.2808 9.58336C68.1962 9.66804 68.1486 9.78288 68.1486 9.90262V11.7011C68.1501 11.9486 68.3526 12.1511 68.6001 12.1511V12.1511ZM65.0001 0.901123C61.181 0.901123 57.5183 2.41826 54.8178 5.11879C52.1172 7.81931 50.6001 11.482 50.6001 15.3011C50.6001 19.1202 52.1172 22.7829 54.8178 25.4835C57.5183 28.184 61.181 29.7011 65.0001 29.7011C66.8911 29.7011 68.7637 29.3287 70.5107 28.605C72.2578 27.8813 73.8453 26.8206 75.1824 25.4835C76.5196 24.1463 77.5803 22.5589 78.304 20.8118C79.0276 19.0647 79.4001 17.1922 79.4001 15.3011C79.4001 13.4101 79.0276 11.5376 78.304 9.79048C77.5803 8.04339 76.5196 6.45595 75.1824 5.11879C73.8453 3.78162 72.2578 2.72093 70.5107 1.99726C68.7637 1.27359 66.8911 0.901123 65.0001 0.901123V0.901123ZM72.5001 21.1346C72.5001 22.0511 71.7501 22.8011 70.8336 22.8011H59.1666C58.2501 22.8011 57.5001 22.0511 57.5001 21.1346V9.46762C57.5001 8.55112 58.2501 7.80112 59.1666 7.80112H70.8336C71.7501 7.80112 72.5001 8.55112 72.5001 9.46762V21.1346V21.1346Z" fill="white"/>
</g>
<defs>
<clipPath id="clip0_1003_4180">
<rect width="30" height="30" fill="white" transform="translate(0 0.301025)"/>
</clipPath>
<clipPath id="clip1_1003_4180">
<rect width="30" height="30" fill="white" transform="translate(100 0.301025)"/>
</clipPath>
<clipPath id="clip2_1003_4180">
<rect width="30" height="30" fill="white" transform="translate(50 0.301025)"/>
</clipPath>
</defs>
</svg>
