<svg width="71" height="67" viewBox="0 0 71 67" fill="none" xmlns="http://www.w3.org/2000/svg">
<path d="M0.845215 16.9141C0.845215 8.0775 8.00866 0.914062 16.8452 0.914062H54.8452C63.6818 0.914062 70.8452 8.07751 70.8452 16.9141V50.3011C70.8452 59.1377 63.6818 66.3011 54.8452 66.3011H16.8452C8.00866 66.3011 0.845215 59.1377 0.845215 50.3011V16.9141Z" fill="#4DABFF"/>
<path d="M46.7504 24.6786C46.4352 23.8182 45.5527 23.2057 44.5125 23.2057H40.5727V21.7474C40.5727 20.9453 39.8636 20.2891 38.9968 20.2891H32.6931C31.8263 20.2891 31.1172 20.9453 31.1172 21.7474V23.2057H27.1774C26.1372 23.2057 25.2705 23.8182 24.9395 24.6786L21.835 32.9474C21.7247 33.2536 21.6616 33.5745 21.6616 33.9099V44.3516C21.6616 45.562 22.7175 46.5391 24.0255 46.5391C25.3335 46.5391 26.3894 45.562 26.3894 44.3516V43.6224H45.3005V44.3516C45.3005 45.5474 46.3564 46.5391 47.6644 46.5391C48.9567 46.5391 50.0283 45.562 50.0283 44.3516V33.9099C50.0283 33.5891 49.9652 33.2536 49.8549 32.9474L46.7504 24.6786ZM27.1774 39.2474C25.8693 39.2474 24.8135 38.2703 24.8135 37.0599C24.8135 35.8495 25.8693 34.8724 27.1774 34.8724C28.4854 34.8724 29.5412 35.8495 29.5412 37.0599C29.5412 38.2703 28.4854 39.2474 27.1774 39.2474ZM44.5125 39.2474C43.2045 39.2474 42.1487 38.2703 42.1487 37.0599C42.1487 35.8495 43.2045 34.8724 44.5125 34.8724C45.8206 34.8724 46.8764 35.8495 46.8764 37.0599C46.8764 38.2703 45.8206 39.2474 44.5125 39.2474ZM24.8135 31.9557L27.1774 25.3932H44.5125L46.8764 31.9557H24.8135Z" fill="white"/>
</svg>
