<svg width="17" height="18" viewBox="0 0 17 18" fill="none" xmlns="http://www.w3.org/2000/svg">
<path d="M16.1058 6.34476L11.1163 5.56053L8.88591 0.670297C8.82499 0.536406 8.72477 0.428017 8.60097 0.362134C8.29048 0.196363 7.91317 0.334505 7.75793 0.670297L5.5275 5.56053L0.538023 6.34476C0.400464 6.36601 0.274695 6.43614 0.178403 6.54241C0.0619923 6.67181 -0.00215557 6.8459 5.53105e-05 7.02642C0.00226619 7.20694 0.0706549 7.37913 0.190194 7.50515L3.80015 11.3115L2.94728 16.6863C2.92728 16.8113 2.94007 16.9399 2.98421 17.0575C3.02834 17.1751 3.10205 17.2769 3.19698 17.3515C3.29191 17.426 3.40426 17.4703 3.52129 17.4794C3.63832 17.4884 3.75535 17.4618 3.8591 17.4025L8.32192 14.8649L12.7847 17.4025C12.9066 17.4727 13.0481 17.496 13.1837 17.4705C13.5256 17.4068 13.7555 17.0561 13.6966 16.6863L12.8437 11.3115L16.4536 7.50515C16.5519 7.40102 16.6168 7.265 16.6364 7.11623C16.6895 6.74431 16.4497 6.40001 16.1058 6.34476V6.34476Z" fill="#FDBF00"/>
</svg>
