<svg width="19" height="17" viewBox="0 0 19 17" fill="none" xmlns="http://www.w3.org/2000/svg">
<path d="M18.1989 5.98586L12.561 5.25589L10.0407 0.703942C9.97187 0.579312 9.85862 0.478422 9.71873 0.417096C9.36788 0.262793 8.94154 0.391379 8.76612 0.703942L6.24584 5.25589L0.607943 5.98586C0.452507 6.00564 0.310394 6.07093 0.201588 6.16984C0.0700486 6.29029 -0.0024357 6.45233 6.24985e-05 6.62037C0.0025607 6.7884 0.079837 6.94868 0.214911 7.06599L4.294 10.609L3.3303 15.612C3.3077 15.7284 3.32215 15.8481 3.37203 15.9575C3.4219 16.067 3.50519 16.1617 3.61246 16.2312C3.71972 16.3006 3.84667 16.3418 3.97891 16.3502C4.11115 16.3586 4.24338 16.3338 4.36062 16.2787L9.40341 13.9167L14.4462 16.2787C14.5839 16.344 14.7438 16.3657 14.897 16.342C15.2833 16.2826 15.5431 15.9562 15.4765 15.612L14.5128 10.609L18.5919 7.06599C18.7029 6.96905 18.7762 6.84244 18.7984 6.70397C18.8584 6.35777 18.5875 6.0373 18.1989 5.98586V5.98586Z" fill="#FDBF00"/>
</svg>
