<svg width="16" height="17" viewBox="0 0 16 17" fill="none" xmlns="http://www.w3.org/2000/svg">
<path d="M15.4744 6.56155L10.6806 5.83157L8.53756 1.27963C8.47903 1.155 8.38274 1.05411 8.26379 0.99278C7.96547 0.838476 7.60295 0.967063 7.4538 1.27963L5.31081 5.83157L0.516931 6.56155C0.384765 6.58133 0.263926 6.64661 0.17141 6.74552C0.059562 6.86597 -0.00207107 7.02802 5.31422e-05 7.19605C0.00217735 7.36409 0.0678851 7.52437 0.182738 7.64167L3.65117 11.1847L2.83174 16.1877C2.81252 16.3041 2.82481 16.4238 2.86722 16.5332C2.90962 16.6426 2.98045 16.7374 3.07165 16.8068C3.16286 16.8762 3.27081 16.9175 3.38325 16.9259C3.49569 16.9343 3.60813 16.9095 3.70781 16.8544L7.99568 14.4923L12.2835 16.8544C12.4006 16.9196 12.5366 16.9414 12.6668 16.9177C12.9954 16.8583 13.2163 16.5319 13.1596 16.1877L12.3402 11.1847L15.8086 7.64167C15.903 7.54473 15.9653 7.41813 15.9842 7.27965C16.0352 6.93346 15.8048 6.61298 15.4744 6.56155Z" fill="#FDBF00"/>
</svg>
