<svg width="17" height="18" viewBox="0 0 17 18" fill="none" xmlns="http://www.w3.org/2000/svg">
<path d="M16.1058 6.34476L11.1163 5.56053L8.88589 0.670297C8.82497 0.536406 8.72475 0.428017 8.60095 0.362134C8.29046 0.196363 7.91315 0.334505 7.75791 0.670297L5.52748 5.56053L0.538022 6.34476C0.400463 6.36601 0.274694 6.43614 0.178403 6.54241C0.0619921 6.67181 -0.00215557 6.8459 5.53104e-05 7.02642C0.00226619 7.20694 0.0706548 7.37913 0.190194 7.50515L3.80014 11.3115L2.94727 16.6863C2.92727 16.8113 2.94006 16.9399 2.9842 17.0575C3.02833 17.1751 3.10205 17.2769 3.19698 17.3515C3.29191 17.426 3.40426 17.4703 3.52128 17.4794C3.63831 17.4884 3.75534 17.4618 3.85909 17.4025L8.3219 14.8649L12.7847 17.4025C12.9065 17.4727 13.048 17.496 13.1836 17.4705C13.5256 17.4068 13.7555 17.0561 13.6965 16.6863L12.8437 11.3115L16.4536 7.50515C16.5519 7.40102 16.6167 7.265 16.6364 7.11623C16.6894 6.74431 16.4497 6.40001 16.1058 6.34476V6.34476Z" fill="#FDBF00"/>
</svg>
