<svg width="16" height="17" viewBox="0 0 16 17" fill="none" xmlns="http://www.w3.org/2000/svg">
<path d="M15.4744 5.83425L10.6806 5.10428L8.53756 0.552331C8.47903 0.427701 8.38274 0.32681 8.26379 0.265485C7.96547 0.111182 7.60295 0.239768 7.4538 0.552331L5.31081 5.10428L0.516931 5.83425C0.384765 5.85403 0.263926 5.91932 0.17141 6.01823C0.059562 6.13868 -0.00207107 6.30072 5.31422e-05 6.46876C0.00217735 6.63679 0.0678851 6.79707 0.182738 6.91437L3.65117 10.4574L2.83174 15.4604C2.81252 15.5768 2.82481 15.6965 2.86722 15.8059C2.90962 15.9153 2.98045 16.0101 3.07165 16.0795C3.16286 16.149 3.27081 16.1902 3.38325 16.1986C3.49569 16.207 3.60813 16.1822 3.70781 16.1271L7.99568 13.765L12.2835 16.1271C12.4006 16.1924 12.5366 16.2141 12.6668 16.1904C12.9954 16.131 13.2163 15.8046 13.1596 15.4604L12.3402 10.4574L15.8086 6.91437C15.903 6.81744 15.9653 6.69083 15.9842 6.55235C16.0352 6.20616 15.8048 5.88569 15.4744 5.83425Z" fill="#FDBF00"/>
</svg>
