<svg width="17" height="18" viewBox="0 0 17 18" fill="none" xmlns="http://www.w3.org/2000/svg">
<path d="M16.1368 6.25882L11.1377 5.4746L8.903 0.58436C8.84197 0.450468 8.74155 0.34208 8.61751 0.276196C8.30642 0.110426 7.92839 0.248568 7.77285 0.58436L5.53813 5.4746L0.539058 6.25882C0.401234 6.28007 0.275223 6.35021 0.178747 6.45647C0.0621115 6.58587 -0.00215972 6.75996 5.54169e-05 6.94048C0.00227055 7.12101 0.0707908 7.2932 0.19056 7.41922L3.80745 11.2256L2.95295 16.6004C2.93291 16.7254 2.94572 16.854 2.98995 16.9715C3.03417 17.0891 3.10802 17.191 3.20313 17.2655C3.29825 17.3401 3.41081 17.3844 3.52806 17.3934C3.64532 17.4024 3.76257 17.3758 3.86652 17.3166L8.33792 14.779L12.8093 17.3166C12.9314 17.3867 13.0732 17.4101 13.209 17.3846C13.5516 17.3208 13.782 16.9702 13.7229 16.6004L12.8684 11.2256L16.4853 7.41922C16.5837 7.31508 16.6487 7.17906 16.6684 7.03029C16.7216 6.65837 16.4814 6.31408 16.1368 6.25882V6.25882Z" fill="#FDBF00"/>
</svg>
