<svg width="17" height="18" viewBox="0 0 17 18" fill="none" xmlns="http://www.w3.org/2000/svg">
<path d="M16.1058 6.25882L11.1163 5.4746L8.88589 0.58436C8.82497 0.450468 8.72475 0.34208 8.60095 0.276196C8.29046 0.110426 7.91315 0.248568 7.75791 0.58436L5.52748 5.4746L0.538022 6.25882C0.400463 6.28007 0.274694 6.35021 0.178403 6.45647C0.0619921 6.58587 -0.00215557 6.75996 5.53104e-05 6.94048C0.00226619 7.12101 0.0706548 7.2932 0.190194 7.41922L3.80014 11.2256L2.94727 16.6004C2.92727 16.7254 2.94006 16.854 2.9842 16.9715C3.02833 17.0891 3.10205 17.191 3.19698 17.2655C3.29191 17.3401 3.40426 17.3844 3.52128 17.3934C3.63831 17.4024 3.75534 17.3758 3.85909 17.3166L8.3219 14.779L12.7847 17.3166C12.9065 17.3867 13.048 17.4101 13.1836 17.3846C13.5256 17.3208 13.7555 16.9702 13.6965 16.6004L12.8437 11.2256L16.4536 7.41922C16.5519 7.31508 16.6167 7.17906 16.6364 7.03029C16.6894 6.65837 16.4497 6.31408 16.1058 6.25882V6.25882Z" fill="#FDBF00"/>
</svg>
