<svg width="25" height="26" viewBox="0 0 25 26" fill="none" xmlns="http://www.w3.org/2000/svg">
<path d="M12.5 23.1042C9.76733 23.1042 7.14661 22.0186 5.21434 20.0864C3.28207 18.1541 2.19653 15.5334 2.19653 12.8007C2.19653 10.0681 3.28207 7.44739 5.21434 5.51512C7.14661 3.58285 9.76733 2.49731 12.5 2.49731C15.2326 2.49731 17.8533 3.58285 19.7856 5.51512C21.7179 7.44739 22.8034 10.0681 22.8034 12.8007C22.8034 15.5334 21.7179 18.1541 19.7856 20.0864C17.8533 22.0186 15.2326 23.1042 12.5 23.1042ZM12.5 24.5761C15.623 24.5761 18.6181 23.3355 20.8264 21.1272C23.0347 18.9189 24.2753 15.9238 24.2753 12.8007C24.2753 9.67773 23.0347 6.68262 20.8264 4.47431C18.6181 2.26601 15.623 1.02539 12.5 1.02539C9.37695 1.02539 6.38184 2.26601 4.17353 4.47431C1.96522 6.68262 0.724609 9.67773 0.724609 12.8007C0.724609 15.9238 1.96522 18.9189 4.17353 21.1272C6.38184 23.3355 9.37695 24.5761 12.5 24.5761V24.5761Z" fill="#1262AF"/>
<path d="M9.87124 7.80073C10.0101 7.72923 10.166 7.69742 10.3218 7.7088C10.4775 7.72018 10.6271 7.77432 10.7541 7.86525L16.6965 12.1098C16.8065 12.1883 16.8962 12.292 16.9581 12.4122C17.02 12.5324 17.0523 12.6656 17.0523 12.8008C17.0523 12.936 17.02 13.0692 16.9581 13.1894C16.8962 13.3096 16.8065 13.4133 16.6965 13.4918L10.7541 17.7364C10.6272 17.8272 10.4776 17.8813 10.3219 17.8927C10.1663 17.9041 10.0105 17.8723 9.87164 17.8009C9.73284 17.7295 9.61641 17.6212 9.53517 17.4879C9.45392 17.3546 9.41101 17.2015 9.41113 17.0454V8.55626C9.41097 8.4002 9.45383 8.24711 9.535 8.11383C9.61617 7.98054 9.73251 7.8722 9.87124 7.80073V7.80073Z" fill="#1262AF"/>
</svg>
