<svg width="25" height="25" viewBox="0 0 25 25" fill="none" xmlns="http://www.w3.org/2000/svg">
<g clip-path="url(#clip0_1003_25239)">
<path d="M12.8732 22.8188C10.2499 22.8188 7.73396 21.7767 5.87899 19.9217C4.02401 18.0667 2.98189 15.5508 2.98189 12.9275C2.98189 10.3042 4.02401 7.78829 5.87899 5.93331C7.73396 4.07833 10.2499 3.03621 12.8732 3.03621C15.4965 3.03621 18.0124 4.07833 19.8674 5.93331C21.7224 7.78829 22.7645 10.3042 22.7645 12.9275C22.7645 15.5508 21.7224 18.0667 19.8674 19.9217C18.0124 21.7767 15.4965 22.8188 12.8732 22.8188ZM12.8732 24.2319C15.8713 24.2319 18.7466 23.0409 20.8666 20.9209C22.9865 18.8009 24.1775 15.9256 24.1775 12.9275C24.1775 9.92941 22.9865 7.05411 20.8666 4.93413C18.7466 2.81416 15.8713 1.62317 12.8732 1.62317C9.87509 1.62317 6.99979 2.81416 4.87981 4.93413C2.75984 7.05411 1.56885 9.92941 1.56885 12.9275C1.56885 15.9256 2.75984 18.8009 4.87981 20.9209C6.99979 23.0409 9.87509 24.2319 12.8732 24.2319Z" fill="#1262AF"/>
<path d="M10.3499 8.12741C10.4832 8.05876 10.6329 8.02823 10.7824 8.03915C10.9319 8.05008 11.0756 8.10205 11.1975 8.18934L16.9021 12.2641C17.0078 12.3395 17.0939 12.439 17.1533 12.5544C17.2127 12.6698 17.2437 12.7977 17.2437 12.9275C17.2437 13.0573 17.2127 13.1852 17.1533 13.3006C17.0939 13.4159 17.0078 13.5155 16.9021 13.5909L11.1975 17.6656C11.0756 17.7528 10.932 17.8048 10.7826 17.8157C10.6331 17.8266 10.4835 17.7961 10.3503 17.7276C10.217 17.659 10.1053 17.555 10.0273 17.4271C9.94928 17.2991 9.90808 17.1521 9.9082 17.0023V8.85271C9.90805 8.7029 9.94919 8.55594 10.0271 8.42798C10.105 8.30002 10.2167 8.19602 10.3499 8.12741Z" fill="#1262AF"/>
</g>
<defs>
<clipPath id="clip0_1003_25239">
<rect width="24" height="24" fill="white" transform="translate(0.873047 0.92749)"/>
</clipPath>
</defs>
</svg>
