<svg width="174" height="33" viewBox="0 0 174 33" fill="none" xmlns="http://www.w3.org/2000/svg">
<path d="M129.851 8.03363C131.214 8.03363 132.452 8.20703 133.564 8.55381C134.676 8.9006 135.615 9.34903 136.38 9.8991C136.858 10.2339 137.235 10.6046 137.51 11.0112C137.785 11.4178 137.923 11.9439 137.923 12.5897V25.1457L137.917 25.4871C137.877 26.6108 137.64 27.5912 137.205 28.4283C136.727 29.349 136.075 30.1143 135.25 30.7242C134.425 31.3341 133.456 31.7825 132.344 32.0695C131.232 32.3565 130.042 32.5 128.775 32.5C126.598 32.5 124.888 32.207 123.645 31.6211C122.401 31.0351 121.779 30.0845 121.779 28.7691C121.779 28.219 121.893 27.7347 122.12 27.3161C122.347 26.8976 122.604 26.5807 122.891 26.3655C123.585 26.7481 124.368 27.071 125.241 27.3341C126.114 27.5972 127.017 27.7287 127.95 27.7287C129.241 27.7287 130.269 27.5135 131.035 27.083C131.8 26.6525 132.183 25.9589 132.183 25.0022V24.4283L131.91 24.5403C130.983 24.8961 129.878 25.074 128.595 25.074C127.519 25.074 126.497 24.9126 125.528 24.5897C124.559 24.2668 123.71 23.7646 122.981 23.083C122.251 22.4013 121.665 21.5224 121.223 20.4462C120.781 19.37 120.559 18.0904 120.559 16.6076C120.559 15.1487 120.793 13.8812 121.259 12.8049C121.725 11.7287 122.371 10.8378 123.196 10.1323C124.021 9.42676 125.002 8.9006 126.138 8.55381C127.274 8.20703 128.512 8.03363 129.851 8.03363ZM33.2869 8.59055C35.4197 8.59055 37.165 9.06913 38.5227 10.0263C39.8804 10.9835 40.6841 12.6741 40.9338 15.0982H36.3769L36.3333 14.83C36.2301 14.3014 36.0313 13.8185 35.737 13.3816C35.2377 12.6949 34.4626 12.3516 33.4118 12.3516C31.9136 12.3516 30.8888 13.0955 30.3374 14.5832C30.0461 15.3739 29.9004 16.4247 29.9004 17.7356C29.9004 18.9841 30.0461 19.9881 30.3374 20.7475C30.868 22.1625 31.8668 22.8699 33.3337 22.8699C34.3741 22.8699 35.1128 22.589 35.5498 22.0272C35.9867 21.4654 36.252 20.7371 36.3457 19.8424H40.887L40.8561 20.1532C40.7054 21.3914 40.2267 22.5674 39.42 23.6814C38.0259 25.627 35.9607 26.5998 33.2245 26.5998C30.4883 26.5998 28.4751 25.7882 27.185 24.1652C25.8949 22.5422 25.2499 20.4354 25.2499 17.8448C25.2499 14.9213 25.9626 12.6481 27.3879 11.0251C28.8132 9.40206 30.7796 8.59055 33.2869 8.59055ZM74.6185 8.54373C76.0334 8.54373 77.3079 8.80903 78.4419 9.33963C79.5759 9.87024 80.5123 10.7078 81.251 11.8522C81.9168 12.8614 82.3486 14.0318 82.5462 15.3635C82.6607 16.1438 82.7075 17.2674 82.6867 18.7344H71.0447L71.0606 19.0302C71.1718 20.5796 71.7023 21.6775 72.6521 22.3237C73.2659 22.7503 74.0046 22.9636 74.8681 22.9636C75.7837 22.9636 76.5276 22.7035 77.0998 22.1833C77.4119 21.9024 77.6876 21.5122 77.9269 21.0128H82.4682L82.4345 21.246C82.2705 22.1798 81.7563 23.1268 80.892 24.0872C79.4355 25.7414 77.3963 26.5685 74.7745 26.5685C72.6105 26.5685 70.7014 25.8715 69.0471 24.4773C67.3929 23.0832 66.5658 20.8152 66.5658 17.6732C66.5658 14.7289 67.3123 12.4712 68.8053 10.9002C70.2982 9.32923 72.236 8.54373 74.6185 8.54373ZM105.848 2.29372C106.374 2.29372 106.846 2.3296 107.265 2.40135C107.683 2.47309 108.036 2.61659 108.323 2.83184C108.61 3.04709 108.831 3.34006 108.987 3.71076C109.142 4.08146 109.22 4.56577 109.22 5.16368V25.9709L109.099 25.9925C108.843 26.0378 108.495 26.0964 108.054 26.1682C107.54 26.2519 107.019 26.2937 106.493 26.2937C105.967 26.2937 105.495 26.2578 105.076 26.1861C104.658 26.1143 104.305 25.9709 104.018 25.7556C103.731 25.5404 103.51 25.2474 103.354 24.8767C103.199 24.506 103.121 24.0217 103.121 23.4238V2.61659L103.242 2.59499C103.498 2.5496 103.846 2.49103 104.287 2.41928C104.801 2.33558 105.321 2.29372 105.848 2.29372ZM115.015 8.5C115.541 8.5 116.014 8.53587 116.432 8.60762C116.851 8.67937 117.203 8.82287 117.49 9.03812C117.777 9.25336 117.999 9.54634 118.154 9.91704C118.31 10.2877 118.387 10.772 118.387 11.37V25.9709L118.267 25.9925C118.011 26.0378 117.662 26.0964 117.221 26.1682C116.707 26.2519 116.187 26.2937 115.661 26.2937C115.135 26.2937 114.662 26.2578 114.244 26.1861C113.825 26.1143 113.473 25.9709 113.186 25.7556C112.899 25.5404 112.677 25.2474 112.522 24.8767C112.366 24.506 112.289 24.0217 112.289 23.4238V8.82287L112.409 8.80127C112.665 8.75588 113.014 8.69731 113.455 8.62556C113.969 8.54185 114.489 8.5 115.015 8.5ZM143.574 2.29372C144.101 2.29372 144.573 2.3296 144.991 2.40135C145.41 2.47309 145.763 2.61659 146.05 2.83184C146.337 3.04709 146.558 3.34006 146.713 3.71076C146.869 4.08146 146.947 4.56577 146.947 5.16368V8.67937L147.071 8.63369C147.378 8.52513 147.809 8.40284 148.364 8.26682C148.997 8.11136 149.697 8.03363 150.462 8.03363C152.83 8.03363 154.678 8.62556 156.005 9.80942C157.332 10.9933 157.996 12.7571 157.996 15.1009V25.9709L157.885 26.0016C157.646 26.0631 157.307 26.1246 156.866 26.1861C156.352 26.2578 155.82 26.2937 155.27 26.2937C154.743 26.2937 154.271 26.2578 153.852 26.1861C153.434 26.1143 153.081 25.9709 152.794 25.7556C152.507 25.5404 152.286 25.2474 152.131 24.8767C151.975 24.506 151.897 24.0217 151.897 23.4238V15.4596L151.893 15.2386C151.858 14.375 151.614 13.7611 151.162 13.3969C150.672 13.0022 150.068 12.8049 149.35 12.8049C148.872 12.8049 148.417 12.8647 147.987 12.9843C147.557 13.1039 147.21 13.2474 146.947 13.4148V25.9709L146.836 26.0016C146.597 26.0631 146.257 26.1246 145.817 26.1861C145.302 26.2578 144.77 26.2937 144.22 26.2937C143.694 26.2937 143.222 26.2578 142.803 26.1861C142.385 26.1143 142.032 25.9709 141.745 25.7556C141.458 25.5404 141.237 25.2474 141.081 24.8767C140.926 24.506 140.848 24.0217 140.848 23.4238V2.61659L140.968 2.59499C141.225 2.5496 141.573 2.49103 142.014 2.41928C142.528 2.33558 143.048 2.29372 143.574 2.29372ZM100.626 4.26682L100.708 4.40583C100.843 4.64998 100.965 4.9564 101.075 5.32511C101.206 5.76756 101.272 6.22795 101.272 6.70628C101.272 7.63901 101.075 8.30269 100.68 8.69731C100.285 9.09193 99.7533 9.28924 99.0836 9.28924H91.55V13.343H99.4065L99.4997 13.4816C99.6508 13.724 99.7812 14.0247 99.8908 14.3834C100.022 14.8139 100.088 15.2683 100.088 15.7466C100.088 16.6555 99.8908 17.3072 99.4962 17.7018C99.1016 18.0964 98.5694 18.2937 97.8998 18.2937H91.6217V25.8632L91.4998 25.894C91.2377 25.9555 90.8658 26.017 90.3841 26.0785C89.822 26.1502 89.266 26.1861 88.7159 26.1861C88.1658 26.1861 87.6815 26.1442 87.263 26.0605C86.8445 25.9768 86.4917 25.8274 86.2047 25.6121C85.9177 25.3969 85.7025 25.0979 85.559 24.7152C85.4155 24.3326 85.3437 23.8303 85.3437 23.2085V7.60314L85.3499 7.35052C85.3956 6.44071 85.6925 5.71176 86.2406 5.16368C86.8385 4.56577 87.6516 4.26682 88.68 4.26682H100.626ZM16.3082 3.03486V7.07678H4.7754V12.3672H14.8724V16.3623H4.7754V26.0067H0V3.03486H16.3082ZM22.8234 8.99631V26.0067H18.3133V8.99631H22.8234ZM47.4022 3.08167V15.4728L52.9423 9.07434H58.4512L52.5054 15.582L58.6853 26.0067H53.3169L49.2437 18.7344L47.4022 20.6539V26.0067H43.0326V3.08167H47.4022ZM64.4827 3.00364V26.0067H60.035V3.00364H64.4827ZM158.328 4.11928C159.074 3.89509 160.346 3.84522 161.836 4.50394C163.339 5.16892 164.277 6.30951 164.649 7.92572L172.721 8.61174C172.821 8.61754 172.92 8.63779 173.019 8.67249C173.167 8.72455 173.247 8.79778 173.314 8.85512C173.478 8.99569 173.531 9.10408 173.609 9.29817C173.748 9.64329 173.706 10.0495 173.525 10.328C173.233 10.7771 172.777 11.0676 172.156 11.1996L165.639 12.5847L166.79 17.9963C166.922 18.6175 167.213 19.0176 167.663 19.1967C168.113 19.3757 168.696 19.389 169.413 19.2367C169.772 19.1605 170.135 19.0519 170.505 18.9109C170.875 18.7699 171.193 18.6212 171.459 18.4647C171.73 18.6818 171.977 18.9351 172.201 19.2246C172.425 19.5142 172.585 19.8859 172.682 20.3399C173.038 22.018 170.397 23.6034 168.666 23.9146C167.062 24.2027 164.602 24.4421 163.195 20.7574C161.789 17.0727 159.58 10.8962 157.894 5.749C157.748 5.30481 157.658 4.86854 157.814 4.50854C157.899 4.31395 157.96 4.22996 158.328 4.11928ZM130.138 12.8049C128.966 12.8049 128.087 13.1338 127.501 13.7915C126.915 14.4492 126.622 15.3879 126.622 16.6076C126.622 17.9948 126.915 18.9933 127.501 19.6031C128.087 20.213 128.834 20.5179 129.743 20.5179C130.724 20.5179 131.501 20.2907 132.075 19.8363V13.2354L131.965 13.178C131.806 13.1015 131.598 13.025 131.34 12.9484C131.017 12.8528 130.616 12.8049 130.138 12.8049ZM74.6185 12.2111C73.5885 12.2111 72.79 12.5336 72.2229 13.1787C71.6559 13.8237 71.2996 14.6977 71.1539 15.8005H78.0674C77.9945 14.6248 77.6382 13.7327 76.9984 13.1241C76.3585 12.5154 75.5652 12.2111 74.6185 12.2111ZM22.8234 2.86319V6.96754H18.3133V2.86319H22.8234ZM115.338 0.5C116.342 0.5 117.15 0.810912 117.76 1.43274C118.369 2.05456 118.674 2.81988 118.674 3.7287C118.674 4.63752 118.369 5.40284 117.76 6.02466C117.15 6.64649 116.342 6.9574 115.338 6.9574C114.334 6.9574 113.526 6.64649 112.916 6.02466C112.307 5.40284 112.002 4.63752 112.002 3.7287C112.002 2.81988 112.307 2.05456 112.916 1.43274C113.526 0.810912 114.334 0.5 115.338 0.5Z" fill="url(#paint0_linear_1016_12060)"/>
<defs>
<linearGradient id="paint0_linear_1016_12060" x1="161.08" y1="16.1191" x2="1.59577" y2="32.3529" gradientUnits="userSpaceOnUse">
<stop stop-color="#299BD8"/>
<stop offset="1" stop-color="#1262AF"/>
</linearGradient>
</defs>
</svg>
